<svg width="1240" height="443" viewBox="0 0 1240 443" fill="none" xmlns="http://www.w3.org/2000/svg">
<g clip-path="url(#clip0)">
<rect width="1240" height="441.887" transform="translate(0 0.625931)" fill="white"/>
<path fill-rule="evenodd" clip-rule="evenodd" d="M452.033 330.061C455.855 331.576 459.443 331.946 460.985 331.17C464.852 329.223 462.867 313.417 458.818 307.866C454.769 302.314 438.324 302.946 439.355 315.4C439.713 319.723 441.962 323.179 444.908 325.768L443.77 348.801L456.693 346.113L452.033 330.061Z" fill="#D4A181"/>
<path fill-rule="evenodd" clip-rule="evenodd" d="M450.383 302.251C448.635 302.307 444.018 303.056 443.172 303.232C442.632 303.344 442.066 303.598 441.666 303.135C441.339 302.756 441.326 302.004 441.172 301.517C440.994 300.952 440.779 300.402 440.562 299.854C439.945 298.295 439.151 296.855 438.146 295.557C436.261 293.121 433.779 291.422 430.865 290.739C427.647 289.985 424.192 290.377 420.995 291.331C417.573 292.351 414.618 294.224 411.517 296.052C408.563 297.795 405.36 298.904 402.019 299.048C398.652 299.194 395.884 297.811 392.842 296.585C389.728 295.33 386.304 294.797 382.991 295.772C379.898 296.682 377.218 298.661 374.904 301.041C372.74 303.268 371.051 305.756 370.359 308.909C369.615 312.3 370.132 315.744 372.544 318.103C376.04 321.522 381.568 321.444 386.023 320.411C388.599 319.814 391.063 318.783 393.367 317.36C396.44 315.463 398.943 312.809 401.737 310.497C403.048 309.412 404.429 308.457 405.907 307.669C407.342 306.905 408.791 306.389 410.297 307.074C411.889 307.799 413.33 308.536 415.072 308.835C416.744 309.121 418.468 309.117 420.149 308.753C423.419 308.046 426.484 306.287 429.555 304.897C432.059 303.764 434.745 302.595 437.474 302.616C438.613 302.625 440.298 302.782 440.88 303.922C434.368 306.612 433.058 316.002 435.921 322.1C437.466 325.391 444.213 328.212 446.322 325.874C447.658 324.393 446.511 323.052 445.766 322.164C444.339 320.464 443.578 318.057 445.48 316.271C447.12 314.731 449.441 317.096 449.477 317.085C449.969 316.94 453.889 313.445 456.29 309.037C459.247 308.613 459.383 306.461 458.432 304.923C457.48 303.384 452.798 302.173 450.383 302.251Z" fill="#191847"/>
<path fill-rule="evenodd" clip-rule="evenodd" d="M460.104 326.317C459.538 326.289 458.977 326.105 458.502 325.786C458.337 325.676 458.252 325.527 458.224 325.373C458.193 325.201 458.237 325.019 458.333 324.873C458.429 324.728 458.576 324.621 458.744 324.59C458.89 324.563 459.054 324.59 459.219 324.71L459.252 324.733C459.536 324.927 459.862 325.053 460.195 325.091C460.517 325.127 460.846 325.081 461.151 324.933C461.732 324.651 462.033 324.174 462.319 323.571C462.354 323.495 462.389 323.418 462.423 323.339C462.439 323.273 462.476 323.221 462.523 323.184C462.576 323.143 462.644 323.121 462.713 323.121C462.78 323.121 462.848 323.141 462.902 323.182C462.954 323.22 462.995 323.275 463.014 323.349C463.136 323.826 463.041 324.325 462.813 324.77C462.561 325.265 462.145 325.692 461.701 325.946C461.213 326.227 460.656 326.345 460.104 326.317ZM453.06 317.887C452.852 317.098 453.975 316.507 454.36 317.224C454.705 317.866 454.801 318.535 454.706 319.256C454.615 319.945 453.774 319.935 453.53 319.422C453.203 318.735 453.189 318.377 453.06 317.887ZM460.374 313.665C460.435 313.404 460.581 313.189 460.845 313.188C461.672 313.186 461.895 314.512 461.851 315.211C461.827 315.59 461.402 315.834 461.095 315.616C460.593 315.259 460.099 314.369 460.36 313.752C460.363 313.724 460.367 313.695 460.374 313.665ZM453.515 314.154L453.665 314.131C454.128 314.061 454.704 313.996 455.025 314.368C455.194 314.566 455.247 314.928 455.011 315.11C454.595 315.429 454.144 315.294 453.652 315.313C453.247 315.329 452.857 315.388 452.465 315.49C451.605 315.716 450.9 316.143 450.16 316.614C450.063 316.675 449.967 316.552 450.015 316.465C450.451 315.658 451.281 315.003 452.107 314.61C452.548 314.4 453.03 314.228 453.515 314.154ZM458.237 312.084L458.291 312.028C458.885 311.42 459.816 310.711 461.066 310.911C461.225 310.975 461.25 311.005 461.266 311.027L461.271 311.035C461.285 311.053 461.306 311.073 461.305 311.127C461.294 311.137 461.284 311.147 461.272 311.157C461.131 311.282 460.982 311.363 460.833 311.438L460.669 311.52C460.481 311.614 460.295 311.712 460.134 311.834C459.789 312.093 459.49 312.387 459.244 312.716C459.191 312.787 459.113 312.842 459.014 312.867C458.921 312.89 458.809 312.888 458.68 312.847C458.512 312.795 458.398 312.728 458.286 312.603C458.202 312.509 458.159 312.413 458.152 312.324C458.144 312.234 458.174 312.15 458.237 312.084Z" fill="black"/>
<path fill-rule="evenodd" clip-rule="evenodd" d="M442.833 399.045C445.927 413.03 514.633 441.81 515.173 442.906C515.532 443.637 503.129 496.343 503.129 496.343L508.928 497.482C508.928 497.482 531.409 439.719 529.037 434.556C525.641 427.163 472.845 392.959 472.845 392.959L442.833 399.045Z" fill="#B28B67"/>
<path fill-rule="evenodd" clip-rule="evenodd" d="M503.469 488.725L512.904 490.35C528.294 463.703 532.852 443.41 530.078 434.131C527.303 424.851 474.065 392.585 474.065 392.585L442.199 399.212C448.205 431.841 509.739 444.165 510.723 445.404C511.706 446.643 506.14 461.94 503.469 488.725Z" fill="#2F3676"/>
<path fill-rule="evenodd" clip-rule="evenodd" d="M450.014 397.551L432.915 474.952L414.636 541.183L421.087 539.842L471.882 393.003L450.014 397.551Z" fill="#997659"/>
<path fill-rule="evenodd" clip-rule="evenodd" d="M415.222 528.093L429.988 527.994C438.456 508.216 474.115 426.928 474.208 392.519L442.296 399.157C428.921 426.798 423.128 508.134 415.222 528.093Z" fill="#5C63AB"/>
<path fill-rule="evenodd" clip-rule="evenodd" d="M512.206 358.73L494.142 371.942L501.628 379.194L514.39 364.177C521.447 361.23 524.634 359.296 523.953 358.375C523.379 357.599 522.544 357.722 521.776 357.835C521.178 357.923 520.619 358.005 520.255 357.652C519.422 356.845 520.686 353.554 522.008 350.483C523.331 347.412 521.725 347.846 520.826 348.368C517.938 350.923 515.065 354.377 512.206 358.73ZM427.278 390.863L415.934 390.805C411.641 413.465 408.929 425.958 407.799 428.282C406.969 429.986 401.057 435.162 396.974 438.119C395.335 439.305 395.953 440.826 396.546 441.23C400.289 443.781 403.15 442.019 406.264 440.102C407.166 439.547 408.089 438.979 409.06 438.498C411.575 437.255 412.589 438.536 413.547 439.747C414.396 440.82 415.2 441.837 416.964 440.997C416.823 440.628 416.656 440.217 416.475 439.772C415.309 436.901 413.588 432.666 414.763 429.753C415.367 428.258 419.538 415.295 427.278 390.863Z" fill="#D4A181"/>
<path fill-rule="evenodd" clip-rule="evenodd" d="M450.186 338.123L454.697 336.304C466.378 344.733 474.29 369.173 481.525 371.121C488.366 372.964 496.931 368.024 507.039 361.658L511.505 368.86C503.455 382.214 484.125 396.101 474.89 392.387C460.125 386.45 452.346 355.895 450.186 338.123Z" fill="#FFA5A1"/>
<path fill-rule="evenodd" clip-rule="evenodd" d="M439.346 404.955C439.346 404.955 467.245 399.155 480.391 396.422C482.266 396.032 481.477 393.196 480.986 391.784C475.319 375.491 460.368 359.765 456.755 335.645L444.617 336.112C437.359 355.068 437.093 376.604 439.346 404.955Z" fill="#DDE3E9"/>
<path fill-rule="evenodd" clip-rule="evenodd" d="M445.991 335.827L443.854 336.271C419.932 359.372 407.965 389.96 407.954 428.036L416.828 428.058C421.459 419.74 426.744 406.604 432.682 388.65C431.578 398.952 431.204 409.359 432.039 418.953L468.985 411.273C473.229 390.367 448.541 335.296 448.541 335.296L445.991 335.827Z" fill="#FFA5A1"/>
<path fill-rule="evenodd" clip-rule="evenodd" d="M295.512 74.3213C297.679 79.0134 300.556 82.5149 302.542 83.217C307.52 84.9775 318.423 69.6545 319.288 61.2981C320.153 52.9417 305.101 38.8923 296.04 50.4933C292.895 54.5196 292.116 59.4809 292.649 64.3166L273.197 83.0699L286.778 92.2309L295.512 74.3213Z" fill="#B28B67"/>
<path fill-rule="evenodd" clip-rule="evenodd" d="M289.757 66.3532C293.194 57.5799 291.843 49.1077 294.883 46.2006C297.923 43.2935 301.695 44.6294 301.695 44.6294C301.695 44.6294 307.913 38.9946 316.286 46.1103C324.66 53.226 327.637 60.733 319.64 67.4403C317.447 65.9606 315.336 63.3769 310.753 62.2732C308.571 61.7479 305.539 64.6249 305.539 64.6249L303.884 63.5087C303.884 63.5087 304.183 57.869 301.124 57.3536C298.064 56.8383 296.572 61.8051 296.572 61.8051L291.517 67.5407L289.757 66.3532Z" fill="#191847"/>
<path fill-rule="evenodd" clip-rule="evenodd" d="M229.141 115.393L252.9 211.559L268.333 291.438L276.184 293.838L260.986 125.129L229.141 115.393Z" fill="#997659"/>
<path fill-rule="evenodd" clip-rule="evenodd" d="M267.067 287.063C266.162 286.32 264.803 286.4 264.115 287.348C263.298 288.473 262.354 289.902 262.064 290.849C261.523 292.619 261.074 296.196 261.074 296.196C263.127 296.823 297.976 307.477 297.976 307.477C297.976 307.477 300.869 303.16 297.885 301.834C294.902 300.507 292.946 299.574 292.946 299.574L278.378 286.895C277.953 286.526 277.306 286.58 276.949 287.015L275.235 289.102C275.235 289.102 271.956 289.564 270.163 289.016C269.247 288.736 268.034 287.856 267.067 287.063Z" fill="#E4E4E4"/>
<path fill-rule="evenodd" clip-rule="evenodd" d="M261.576 277.336L278.116 277.384C278.116 277.384 277.263 244.588 273.748 204.441C270.232 164.295 263.817 125.994 263.817 125.994L221.057 112.921C221.057 112.921 226.633 160.593 236.775 201.261C246.916 241.928 261.576 277.336 261.576 277.336Z" fill="#FFA5A2"/>
<path fill-rule="evenodd" clip-rule="evenodd" d="M225.946 114.416C212.622 141.584 192.613 175.38 191.433 176.251C190.647 176.832 168.548 177.423 125.137 178.023L124.716 185.466C173.938 193.075 200.392 195.391 204.077 192.413C209.605 187.946 242.21 149.276 257.928 124.194L225.946 114.416Z" fill="#B28B67"/>
<path fill-rule="evenodd" clip-rule="evenodd" d="M140.863 176.285L140.44 188.352C174.754 202.225 197.042 206.595 207.304 201.462C217.565 196.328 235.269 170.825 260.414 124.954L219.64 112.488C200.934 150.627 190.943 170.421 189.667 171.872C188.391 173.323 172.123 174.794 140.863 176.285Z" fill="#FFA5A1"/>
<path fill-rule="evenodd" clip-rule="evenodd" d="M128.139 178.3C128.713 177.28 128.398 175.956 127.346 175.443C126.096 174.834 124.525 174.152 123.543 174.031C121.706 173.806 118.107 173.986 118.107 173.986C117.845 176.117 113.4 212.297 113.4 212.297C113.4 212.297 118.153 214.397 118.941 211.227C119.73 208.058 120.309 205.969 120.309 205.969L130.265 189.414C130.555 188.931 130.39 188.304 129.899 188.028L127.547 186.702C127.547 186.702 126.523 183.553 126.752 181.69C126.869 180.739 127.525 179.391 128.139 178.3Z" fill="#E4E4E4"/>
<path fill-rule="evenodd" clip-rule="evenodd" d="M319.952 149.277L296.429 135.561L292.814 148.051L315.4 154.701C322.263 161.243 325.997 163.876 326.6 162.599C327.108 161.523 326.533 160.63 326.004 159.807C325.592 159.165 325.207 158.567 325.383 157.958C325.786 156.569 329.916 156.264 333.847 156.142C337.779 156.021 336.465 154.407 335.436 153.651C331.211 151.696 326.05 150.238 319.952 149.277ZM175.786 120.601C179.861 118.638 225.804 88.2942 225.804 88.2942L237.56 97.5507C237.56 97.5507 184.125 125.969 181.689 127.375C178.524 129.202 177.326 134.513 176.514 138.114C176.389 138.671 176.272 139.187 176.159 139.643C173.833 139.066 173.732 137.488 173.626 135.824C173.506 133.944 173.378 131.955 170.03 131.177C168.736 130.876 167.43 130.696 166.155 130.519C161.749 129.91 157.701 129.35 155.736 124.056C155.424 123.217 155.854 121.31 158.295 121.464C164.376 121.847 173.794 121.561 175.786 120.601Z" fill="#997659"/>
<path fill-rule="evenodd" clip-rule="evenodd" d="M287.27 76.1937L296.022 84.0206C282.251 106.333 284.502 128.98 315.661 146.253L298.684 175.577C270.155 158.672 255.519 130.556 272.772 98.8708C277.239 90.6685 282.19 82.369 287.27 76.1937Z" fill="#AFB9C5"/>
<path fill-rule="evenodd" clip-rule="evenodd" d="M284.777 69.9182L283.891 69.226C248.684 71.7281 214.575 87.499 181.565 116.539L209.851 138.639C215.054 132.33 220.281 126.314 225.58 120.628L263.358 150.143C266.333 143.89 268.803 137.585 271.317 131.169C277.138 116.311 283.192 100.857 296.297 84.0826L284.808 69.9556L284.807 69.9417L284.778 69.9188L284.777 69.9181C284.777 69.9181 284.777 69.9181 284.777 69.9182Z" fill="#C5CFD6"/>
<path fill-rule="evenodd" clip-rule="evenodd" d="M313.19 155.476C296.106 137.146 278.544 120.982 259.852 107.495C275.536 125.282 293.923 148.182 301.033 164.975L313.19 155.476Z" fill="black" fill-opacity="0.1"/>
<path fill-rule="evenodd" clip-rule="evenodd" d="M1073.33 91.5563C1069.31 99.4723 1064.15 105.309 1060.7 106.401C1052.04 109.14 1034.31 82.2873 1033.36 67.9264C1032.41 53.5656 1059.14 30.3402 1073.95 50.7148C1079.09 57.7861 1080.11 66.327 1078.89 74.58L1111.08 107.784L1087.18 122.718L1073.33 91.5563Z" fill="#D4A181"/>
<path fill-rule="evenodd" clip-rule="evenodd" d="M1079.94 37.1104C1080.24 35.8632 1079.97 34.5083 1079.69 33.244C1079.4 31.9307 1079.08 30.6131 1078.63 29.3352C1077.74 26.782 1076.13 24.2035 1073.45 23.4629C1071.29 22.8691 1068.98 23.4452 1067.12 24.4181C1065.88 25.0663 1064.77 25.9906 1063.87 27.0714C1062.98 28.1436 1062.47 29.4858 1061.66 30.6242C1060.11 28.2367 1058.12 25.9697 1055.61 24.6741C1053.19 23.4277 1050.62 23.489 1048.3 24.5316C1045.91 25.6017 1044.06 27.4706 1042.76 29.7622C1042.44 30.336 1042.12 30.9196 1041.85 31.5268C1041.63 32.0353 1041.42 32.6075 1041.03 33.0015C1040.59 33.4409 1040.15 33.304 1039.59 33.1388C1038.93 32.945 1038.25 32.8341 1037.57 32.783C1034.57 32.5569 1031.49 33.6198 1029.68 36.0107C1028.84 37.1122 1028.22 38.4859 1028.09 39.9258C1027.97 41.2092 1028.36 42.8837 1027.82 44.0609C1027.59 44.5606 1027.1 44.3913 1026.59 44.3604C1025.83 44.3138 1025.06 44.2128 1024.29 44.1806C1023.21 44.1352 1022.16 44.2591 1021.15 44.6035C1019.69 45.1076 1017.96 46.2833 1018.64 48.1897C1018.9 48.9058 1019.43 49.5139 1019.87 50.121C1020.47 50.9547 1021.08 51.7865 1021.7 52.6097C1022.17 53.2347 1022.64 53.8277 1023.17 54.3988C1023.46 54.7032 1024.07 55.2181 1024.13 55.6573C1024.22 56.2063 1023.21 56.4948 1022.85 56.7384C1022.15 57.2194 1021.5 57.7992 1021.03 58.525C1020.66 59.0876 1020.34 59.7793 1020.49 60.5089C1020.58 60.9571 1020.85 61.3092 1021.15 61.6444C1021.51 62.0467 1021.57 62.3396 1021.8 62.829C1020.53 62.9575 1016.5 63.9968 1017.17 65.9991C1017.39 66.6658 1018.12 67.1194 1018.67 67.4546C1019.63 68.0425 1020.68 68.4735 1021.72 68.8603C1023.89 69.6674 1026.17 70.1151 1028.42 70.3006C1027.12 72.2311 1028.13 74.8924 1030.57 75.326C1031.65 75.5174 1032.67 75.0762 1033.51 74.4924C1033.82 74.2788 1034.2 73.8693 1034.49 73.7681C1034.64 73.7136 1034.86 73.7377 1035.05 73.6337C1036.33 72.9502 1037.54 71.7877 1038.57 70.7647C1040.4 68.9418 1041.8 66.6622 1042.49 64.0846C1042.66 63.4234 1042.87 62.9764 1043.45 62.6253C1043.95 62.3175 1044.53 62.1479 1045.03 61.8481C1046.38 61.055 1047.17 59.6627 1048.13 58.4645C1049.24 60.0771 1050.85 61.6097 1052.47 62.6785C1053.78 63.5501 1055.05 63.0045 1056.25 62.4014C1060.1 60.4728 1063.51 57.8129 1067.15 55.5447C1064.12 58.5412 1060.69 61.1432 1057.78 64.2609C1056.47 65.67 1058.34 65.9804 1059.47 66.2959C1061.34 66.8155 1063.11 67.8033 1064.67 69.0296C1064.99 65.7077 1067.11 62.3255 1070.24 61.3296C1073.7 60.229 1078.32 62.948 1078.22 67.0366C1078.16 69.4102 1076.57 71.3082 1075.36 73.07C1077.5 73.6079 1079.06 75.4034 1080.89 76.5932C1081.79 77.1799 1082.91 77.7776 1083.96 77.5278C1084.34 77.4354 1084.72 77.2111 1085.13 77.3137C1085.65 77.4407 1085.95 77.7538 1086.52 77.7817C1088.79 77.8932 1091.22 76.2595 1091.72 73.9414C1092.18 71.845 1090.56 69.9919 1088.68 69.3358C1089.93 67.5747 1092.44 64.7436 1090.12 62.5297C1093.64 59.9972 1098.82 48.4978 1091.19 47.2291C1092.93 44.018 1093.08 38.742 1089.3 36.5399C1086.38 34.8443 1082.57 35.6532 1079.94 37.1104Z" fill="#191847"/>
<path fill-rule="evenodd" clip-rule="evenodd" d="M1206.15 312.227C1206.15 312.227 1163.89 324.041 1133.22 324.041C1102.56 324.041 1076.27 305.848 1076.27 305.848C1076.27 305.848 1117.62 293.722 1144.38 293.722C1171.14 293.722 1206.15 312.227 1206.15 312.227Z" fill="#6F7DE2"/>
<path fill-rule="evenodd" clip-rule="evenodd" d="M1108.84 335.393C1109.11 334.985 1109.34 334.541 1109.52 334.06C1113.28 324.106 1173.6 216.725 1179.61 197.093H1111.7C1107.13 212.02 1086.57 305.691 1083.68 324.38C1074.54 353.859 1055.74 449.332 1053.34 455.946C1050.82 462.904 1065.02 470.153 1068.81 461.599C1074.83 447.988 1089.19 410.327 1095.58 387.332C1101.57 365.774 1106.45 346.379 1108.84 335.393Z" fill="#D4A181"/>
<path fill-rule="evenodd" clip-rule="evenodd" d="M1164.4 348.503C1191.97 355.469 1292.84 368.063 1299.77 370.038C1306.89 372.07 1313.13 357.4 1304.33 354.223C1290.32 349.166 1251.73 337.484 1228.34 332.716C1209.52 328.881 1192.34 325.752 1180.82 323.92C1181.79 291.551 1186.26 213.871 1183.33 197.093H1123.24C1126.05 213.182 1149.77 330.572 1154.18 342.323C1155.58 346.518 1159.76 348.372 1164.4 348.503Z" fill="#D4A181"/>
<path fill-rule="evenodd" clip-rule="evenodd" d="M1183.14 197.093C1183.14 197.093 1143.42 185.736 1107.97 197.093C1099.75 234.581 1079.78 249.46 1076.27 306.934C1116.2 326.764 1165.52 292.792 1206.62 312.13C1218.37 285.081 1201.93 219.94 1183.14 197.093Z" fill="#AAB4FF"/>
<path fill-rule="evenodd" clip-rule="evenodd" d="M1031.87 264.162L1051.27 222.007L1068.41 235.876L1043.46 267.265C1040.27 283.105 1037.63 290.431 1035.55 289.243C1033.8 288.241 1033.73 286.433 1033.67 284.767C1033.62 283.469 1033.58 282.258 1032.74 281.583C1030.84 280.04 1024.8 283.66 1019.21 287.341C1013.63 291.022 1013.89 287.485 1014.59 285.424C1018.57 278.561 1024.33 271.474 1031.87 264.162ZM1231.51 237.956C1225.81 232.68 1190.53 173.442 1190.53 173.442L1167.7 182.313C1167.7 182.313 1215.14 242.578 1218.43 246.115C1222.71 250.709 1222.02 260.038 1221.55 266.364C1221.47 267.343 1221.41 268.25 1221.36 269.056C1225.47 269.279 1226.43 266.736 1227.44 264.056C1228.57 261.028 1229.78 257.824 1235.67 258.231C1237.94 258.388 1240.17 258.748 1242.36 259.101C1249.89 260.318 1256.82 261.435 1262.7 253.727C1263.63 252.505 1263.88 249.154 1259.79 248.178C1249.62 245.747 1234.3 240.536 1231.51 237.956Z" fill="#D4A181"/>
<path fill-rule="evenodd" clip-rule="evenodd" d="M1088.68 102.404L1078.59 104.413C1077.93 151.381 1063.68 199.294 1035.84 248.153L1080.84 273.656C1103.25 210.696 1109.52 152.211 1088.68 102.404Z" fill="#191847"/>
<path fill-rule="evenodd" clip-rule="evenodd" d="M1175.61 205.524L1091.32 237.877C1091.32 237.877 1093.27 155.41 1074.16 105.627L1098.13 92.0788C1130.45 116.547 1151.28 153.95 1175.61 205.524Z" fill="#DDE3E9"/>
<path fill-rule="evenodd" clip-rule="evenodd" d="M1227.78 226.943C1178.65 126.48 1098.69 91.8644 1098.69 91.8644L1098.68 91.8901C1098.67 91.8854 1098.67 91.8807 1098.66 91.876L1097 92.513C1094.06 93.7591 1088.07 96.3659 1088.07 96.3659L1088.67 116.282C1100.02 148.768 1126.96 250.078 1126.96 250.078L1182.13 228.9C1183.75 233.398 1185.28 238.003 1186.7 242.712L1227.78 226.943Z" fill="#2F3676"/>
<path fill-rule="evenodd" clip-rule="evenodd" d="M1182.29 229.335C1175.27 209.736 1166.54 192.153 1157.33 176.746C1163.35 196.915 1169.25 221.696 1166.92 235.235L1182.29 229.335Z" fill="black" fill-opacity="0.1"/>
<path fill-rule="evenodd" clip-rule="evenodd" d="M1157.05 200.086L1124.95 197.877L1129.81 210.543L1157.05 200.086Z" fill="white" fill-opacity="0.2"/>
<path fill-rule="evenodd" clip-rule="evenodd" d="M1051.07 96.5893C1052.37 96.586 1053.67 96.2415 1054.78 95.527C1055.8 94.8789 1056.72 93.8324 1057.26 92.649C1057.74 91.5977 1057.91 90.4401 1057.58 89.356C1057.54 89.2322 1057.46 89.1414 1057.37 89.0808C1057.27 89.0155 1057.15 88.986 1057.03 88.9924C1056.91 88.9989 1056.79 89.0434 1056.71 89.1196C1056.63 89.1886 1056.57 89.283 1056.55 89.4016C1056.47 89.6026 1056.39 89.801 1056.31 89.995C1055.67 91.5314 1054.97 92.7447 1053.55 93.52C1052.78 93.9406 1051.93 94.1002 1051.1 94.0444C1050.21 93.9846 1049.33 93.6785 1048.56 93.1812C1048.22 92.9565 1047.88 92.923 1047.58 93.0079C1047.24 93.1042 1046.95 93.3583 1046.77 93.6821C1046.6 94.0005 1046.53 94.3833 1046.62 94.7376C1046.7 95.0486 1046.89 95.3401 1047.24 95.5484C1048.39 96.2346 1049.73 96.5926 1051.07 96.5893Z" fill="#231F20"/>
<path fill-rule="evenodd" clip-rule="evenodd" d="M1046.57 81.0191C1045.55 82.1233 1044.19 84.4081 1046.05 85.8707C1048.08 87.0464 1049.78 84.524 1050.63 83.3567C1051.46 82.4031 1053.11 83.7519 1052.38 84.7938C1046.13 93.0172 1039.76 83.2188 1045.69 80.3239C1046.34 80.005 1046.82 80.6945 1046.57 81.0191Z" fill="#231F20"/>
<path fill-rule="evenodd" clip-rule="evenodd" d="M1057.09 74.3841C1057.42 74.0167 1057.85 73.7946 1058.44 73.8782C1058.89 73.9434 1059.78 74.3463 1060.5 75.0034C1061 75.453 1061.42 76.0258 1061.57 76.7094C1061.6 76.8682 1061.69 76.966 1061.81 77.0242C1061.9 77.0702 1062.02 77.0892 1062.14 77.0691C1062.25 77.052 1062.36 77.0065 1062.45 76.9498C1062.61 76.842 1062.67 76.6987 1062.68 76.5938C1062.76 75.5819 1062.31 74.6079 1061.66 73.8026C1060.78 72.7158 1059.53 71.954 1058.81 71.8001C1057.59 71.5366 1056.33 71.8748 1055.44 72.7676C1054.68 73.5275 1054.35 74.4937 1054.03 75.4745C1053.96 75.6831 1053.9 75.89 1053.82 76.0951C1053.68 76.5061 1053.75 76.8498 1053.93 77.1107C1054.13 77.3998 1054.48 77.5913 1054.85 77.6346C1055.2 77.6746 1055.57 77.5879 1055.84 77.3609C1056.08 77.169 1056.26 76.8761 1056.31 76.4558C1056.39 75.7479 1056.62 74.9236 1057.09 74.3841Z" fill="#231F20"/>
<path fill-rule="evenodd" clip-rule="evenodd" d="M1037.46 81.6416C1037.77 81.7033 1037.99 81.684 1038.27 81.5067C1038.42 81.4085 1038.56 81.2653 1038.65 81.0997C1038.74 80.9356 1038.78 80.7508 1038.77 80.5652C1038.73 80.1072 1038.85 79.6332 1039.11 79.2707C1039.33 78.9609 1039.66 78.735 1040.08 78.6845C1040.54 78.6299 1041.04 78.7879 1041.42 79.0336C1041.55 79.1158 1041.66 79.219 1041.77 79.3213C1041.98 79.5125 1042.18 79.6885 1042.42 79.8025C1042.52 79.8459 1042.64 79.8584 1042.75 79.827C1042.79 79.8143 1042.83 79.7942 1042.87 79.7687C1043.18 79.2071 1043.17 78.8528 1043.06 78.5296C1042.94 78.1907 1042.7 77.8828 1042.39 77.6225C1041.65 77.012 1040.5 76.6731 1039.8 76.724C1038.84 76.7937 1038.01 77.2872 1037.44 77.9993C1036.86 78.732 1036.54 79.6947 1036.64 80.6494C1036.66 80.8794 1036.75 81.1095 1036.89 81.2892C1037.03 81.4648 1037.22 81.5942 1037.46 81.6416Z" fill="#231F20"/>
<path fill-rule="evenodd" clip-rule="evenodd" d="M1051.99 70.6663C1052.76 70.5226 1053.22 70.0271 1053.67 69.5199C1053.92 69.2382 1054.12 69.0136 1054.34 68.8115C1054.96 68.2559 1055.65 67.7613 1056.39 67.3937C1057.17 67.0095 1058.06 66.6185 1058.92 66.4989C1059.13 66.4705 1059.34 66.4532 1059.55 66.4358C1059.74 66.42 1059.92 66.4047 1060.1 66.3814C1060.31 66.3545 1060.52 66.3379 1060.73 66.3216C1060.89 66.3327 1060.93 66.3387 1060.97 66.3453C1061.02 66.3551 1061.09 66.3652 1061.16 66.3743C1061.26 66.3869 1061.37 66.3977 1061.47 66.4013C1061.65 66.4156 1061.72 66.3995 1061.76 66.3751C1061.83 66.3347 1061.88 66.2879 1061.91 66.2288C1061.94 66.1733 1061.95 66.1081 1061.94 66.0326C1061.91 65.6556 1061.63 65.3548 1061.28 65.1166C1060.74 64.7551 1060.02 64.5375 1059.54 64.4634C1058.41 64.2917 1057.14 64.258 1056.02 64.514C1054.75 64.806 1053.6 65.2945 1052.53 66.0301C1051.86 66.4871 1051.14 67.0554 1050.69 67.7494C1050.36 68.249 1050.18 68.8149 1050.27 69.4527C1050.33 69.8443 1050.56 70.1795 1050.87 70.4017C1051.2 70.6283 1051.6 70.739 1051.99 70.6663Z" fill="#231F20"/>
<path fill-rule="evenodd" clip-rule="evenodd" d="M1032.45 74.2865C1032.46 74.3544 1032.49 74.4107 1032.54 74.4542C1032.58 74.4998 1032.64 74.5313 1032.7 74.5453C1032.76 74.5593 1032.82 74.556 1032.88 74.5343C1032.94 74.5135 1032.99 74.4764 1033.03 74.4208C1034 73.0478 1035.14 72.1976 1036.87 72.0628C1037.73 71.9966 1038.63 72.1044 1039.47 72.2405C1039.72 72.2801 1039.97 72.3434 1040.22 72.4069C1041.01 72.6061 1041.81 72.7917 1042.54 72.3921C1042.98 72.1515 1043.3 71.7399 1043.4 71.2885C1043.5 70.8635 1043.42 70.4021 1043.09 70.0082C1042.26 69.0279 1040.73 69.02 1039.47 69.0346C1039.38 69.0357 1039.29 69.0367 1039.2 69.0373C1037.98 69.0454 1036.79 69.2319 1035.67 69.7373C1034.78 70.1383 1033.8 70.8724 1033.16 71.7762C1032.62 72.5281 1032.31 73.3956 1032.45 74.2865Z" fill="#231F20"/>
<path fill-rule="evenodd" clip-rule="evenodd" d="M662.184 47.4041C657.67 41.8471 652.607 38.1131 649.697 37.8258C642.399 37.1056 632.955 61.1425 634.639 72.5866C636.323 84.0307 661.359 97.8638 669.594 79.4013C672.453 72.9935 671.809 66.1124 669.445 59.8281L689.221 28.4088L667.829 20.6229L662.184 47.4041Z" fill="#D4A181"/>
<path fill-rule="evenodd" clip-rule="evenodd" d="M634.183 67.5573C633.944 68.8741 633.96 70.4393 633.951 71.7643C633.94 73.4723 634.259 75.1323 634.688 76.7437C635.497 79.7774 636.728 82.6993 638.306 85.3265C641.187 90.1254 645.693 93.9289 651.035 95.1705C653.732 95.7974 656.595 95.7312 659.322 94.8789C661.786 94.1087 664.429 92.617 666.982 93.37C669.76 94.1895 671.384 97.4778 673.027 99.7419C674.88 102.294 677.053 104.454 679.753 105.969C684.276 108.506 689.382 108.536 694.123 105.823C699.169 102.935 703.959 97.7505 703.655 91.3801C703.598 90.1959 703.36 89.1281 702.826 88.1209C702.336 87.1972 701.478 86.0915 701.565 84.932C701.658 83.6996 703.121 82.5985 703.852 81.722C704.899 80.4661 705.879 79.1046 706.299 77.4781C706.988 74.8069 706.253 71.7497 705.146 69.4265C704.021 67.0624 702.222 65.2871 700.083 63.9918C698.654 63.1269 697.142 62.3862 695.536 61.931C694.738 61.7051 693.975 61.67 693.16 61.5665C692.368 61.4659 692.029 61.124 691.553 60.4993C689.343 57.597 686.503 55.7515 683.072 54.8147C680.176 54.0242 676.69 53.5218 673.701 54.6005C670.381 55.7986 669.365 58.7472 668.825 62.096C668.304 61.5523 666.618 60.7195 667.214 62.3474C667.45 62.9922 668.163 63.4789 668.591 63.9633C669.089 64.5273 669.561 65.1936 669.842 65.9204C670.98 68.855 667.364 72.6685 664.644 72.5239C660.604 72.3091 661.649 66.9028 659.534 64.6361C658.318 63.3327 656.378 63.8031 654.874 64.4567C652.858 65.3323 651.152 66.843 649.573 68.4377C648.273 69.7509 647.015 71.1046 645.704 72.4048C645.091 73.012 643.141 74.6486 643.44 75.6961C640.647 75.264 638.137 73.1326 636.407 70.9056C635.691 69.9851 635.218 69.085 635.098 67.8757C635.073 67.6166 635.081 66.877 634.801 66.7447C634.28 66.4983 634.243 67.2264 634.183 67.5573Z" fill="#191847"/>
<path fill-rule="evenodd" clip-rule="evenodd" d="M643.262 47.0427C644.029 47.3609 644.714 47.8917 645.215 48.5698C645.389 48.8055 645.434 49.0544 645.398 49.2821C645.357 49.5381 645.208 49.7702 645.004 49.9258C644.8 50.0819 644.545 50.1589 644.299 50.1196C644.085 50.0855 643.871 49.9663 643.703 49.7191L643.667 49.6697C643.37 49.2604 642.982 48.9246 642.54 48.7081C642.114 48.4995 641.637 48.4022 641.144 48.4588C640.205 48.5666 639.558 49.0827 638.87 49.7835C638.785 49.872 638.699 49.9633 638.614 50.056C638.559 50.14 638.484 50.1941 638.401 50.2224C638.308 50.2539 638.203 50.2521 638.107 50.2181C638.015 50.1852 637.932 50.123 637.877 50.0402C637.824 49.9615 637.794 49.8643 637.804 49.7525C637.867 49.0262 638.24 48.378 638.771 47.869C639.361 47.3037 640.142 46.9126 640.878 46.7755C641.688 46.6244 642.514 46.7326 643.262 47.0427ZM640.495 58.2475C639.633 57.7149 638.319 56.4729 639.247 55.1524C640.338 53.9881 641.911 55.323 642.685 55.9268C643.404 56.3947 644.211 55.1913 643.544 54.6449C637.946 50.4332 635.675 58.1082 640.059 58.8737C640.542 58.9581 640.721 58.4123 640.495 58.2475ZM650.527 63.1468C650.431 64.3486 648.63 64.6215 648.451 63.4323C648.291 62.367 648.48 61.3885 648.952 60.4294C649.403 59.5131 650.537 59.9406 650.623 60.7749C650.738 61.8933 650.586 62.3993 650.527 63.1468ZM636.817 63.6788C636.566 64.013 636.203 64.2412 635.769 64.1123C634.412 63.7092 634.812 61.7513 635.288 60.7982C635.547 60.2807 636.384 60.1495 636.763 60.6052C637.379 61.3483 637.674 62.8323 636.891 63.5643C636.869 63.6021 636.846 63.6403 636.817 63.6788ZM648.971 68.4053L648.756 68.4434C648.093 68.56 647.269 68.672 646.8 68.1302C646.551 67.8429 646.465 67.3088 646.8 67.0338C647.388 66.5499 648.038 66.7375 648.743 66.6965C649.324 66.6626 649.883 66.5649 650.442 66.4023C651.67 66.0457 652.67 65.3947 653.719 64.6799C653.857 64.5862 653.997 64.765 653.931 64.8958C653.326 66.1006 652.153 67.0903 650.978 67.6936C650.351 68.0156 649.665 68.2828 648.971 68.4053ZM638.054 68.945L637.89 68.9109C636.104 68.5316 633.784 67.7739 632.939 65.9916C632.907 65.7396 632.941 65.6856 632.968 65.6503L632.978 65.6385C633 65.6084 633.019 65.5669 633.126 65.5326C633.156 65.5398 633.186 65.5474 633.216 65.5555C633.604 65.6588 633.911 65.801 634.208 65.9485L634.529 66.1097C634.903 66.2958 635.28 66.4751 635.679 66.6075C636.531 66.8899 637.407 67.0889 638.297 67.1951C638.49 67.2181 638.676 67.2843 638.823 67.3977C638.962 67.5053 639.068 67.6543 639.116 67.8524C639.179 68.1087 639.161 68.3028 639.026 68.5341C638.924 68.7077 638.778 68.8281 638.611 68.8972C638.441 68.9677 638.247 68.9843 638.054 68.945Z" fill="black"/>
<path fill-rule="evenodd" clip-rule="evenodd" d="M631.591 57.6771C632.996 56.2246 635.342 55.8077 637.211 56.5868C642.012 58.5932 639.662 64.8515 635.96 66.5322C635.497 66.6475 634.88 66.9211 634.316 66.9832C634.265 67.0082 634.155 66.9358 634.02 67.0042C629.938 66.5483 629.008 60.2087 631.591 57.6771ZM647.074 57.3055C648.65 55.2142 651.581 54.5691 653.975 55.5412C658.704 57.4045 657.027 62.954 653.791 65.1297C646.955 67.6991 644.133 61.1613 647.074 57.3055ZM657.327 61.9389C657.331 61.941 657.336 61.942 657.34 61.9441C657.315 61.9551 657.29 61.9661 657.265 61.9773C657.274 61.9561 657.282 61.9352 657.29 61.914C657.303 61.9224 657.313 61.9323 657.327 61.9389ZM628.337 64.1994C628.723 64.1986 629.28 64.1352 629.6 63.8674C630.388 66.525 633.295 68.9847 635.824 67.1912C637.815 66.5505 639.293 65.1297 640.133 63.2407C641.647 64.1418 644.028 63.757 645.341 62.5655C646.201 65.4082 648.318 66.4036 650.837 66.5505C653.586 67.001 656.327 64.3297 657.182 62.1867C657.893 62.2677 658.955 62.494 659.624 62.0551C663.965 63.194 671.555 63.8219 672.438 63.1891C673.067 62.9477 673.412 61.4626 672.533 61.3825C671.768 61.4912 672.623 62.4706 671.851 62.5775C667.739 62.8325 663.748 62.0041 659.68 61.6565C659.317 61.1678 658.143 61.0043 657.517 61.2007C658.503 57.5654 656.375 55.0922 653.186 54.3514C648.247 53.2166 643.951 57.6359 645.242 62.2327C643.746 62.9772 642.025 62.9452 640.396 62.5531C643.119 52.5271 626.978 52.9769 629.499 63.5238C627.821 62.689 627.457 64.031 628.337 64.1994Z" fill="black"/>
<path fill-rule="evenodd" clip-rule="evenodd" d="M800.617 -47.7736C795.405 -44.2859 755.832 -0.793012 755.832 -0.793012L741.218 -9.32213C741.218 -9.32213 788.157 -53.5201 791.229 -55.9245C795.219 -59.0479 795.846 -66.5718 796.272 -71.6737C796.337 -72.4629 796.398 -73.1943 796.466 -73.8424C799.766 -73.5029 800.206 -71.3556 800.67 -69.0918C801.194 -66.5349 801.748 -63.8293 806.489 -63.4121C808.32 -63.2509 810.145 -63.257 811.927 -63.263C818.085 -63.2837 823.742 -63.3027 827.448 -56.4177C828.035 -55.3262 827.81 -52.6241 824.434 -52.3604C816.023 -51.7036 803.165 -49.4787 800.617 -47.7736ZM610.015 -87.2849L630.769 -56.1425L642.677 -69.3647L618.856 -91.2245C614.317 -103.445 611.296 -108.95 609.792 -107.74C608.523 -106.72 608.697 -105.27 608.856 -103.935C608.981 -102.895 609.097 -101.924 608.516 -101.279C607.191 -99.808 601.926 -101.93 597.016 -104.157C592.106 -106.384 592.759 -103.598 593.573 -102.043C597.604 -97.0771 603.085 -92.1576 610.015 -87.2849Z" fill="#B28B67"/>
<path fill-rule="evenodd" clip-rule="evenodd" d="M655.058 36.3966L665.979 35.9532C666.783 33.4324 668.079 29.9016 669.564 25.8565C674.225 13.1603 680.746 -4.60237 679.764 -12.1063C676.361 -38.1034 657.178 -57.9817 635.814 -80.1217C632.95 -83.0893 630.047 -86.0976 627.138 -89.1667L614.671 -77.1567C615.286 -76.2677 615.891 -75.378 616.488 -74.4876C615.222 -74.5024 613.962 -73.9534 613.109 -72.8858C611.642 -71.0476 611.94 -68.3679 613.775 -66.9006C617.505 -63.9188 621.251 -61.8707 624.992 -60.8058C643.44 -28.653 651.791 4.16666 655.058 36.3966Z" fill="#69A1AC"/>
<path fill-rule="evenodd" clip-rule="evenodd" d="M734.147 -47.4992C734.147 -47.4992 693.934 -67.3537 668.202 -71.501C666.077 -71.8435 663.043 -63.2362 663.112 -60.5588C664.185 -18.8647 663.906 11.2696 654.686 36.6022C659.386 35.9741 668.733 41.014 668.733 41.014C695.924 21.3464 714.958 -5.64767 734.147 -47.4992Z" fill="#191847"/>
<path fill-rule="evenodd" clip-rule="evenodd" d="M787.434 -28.6035C737.037 33.0565 675.084 45.7418 675.084 45.7418L670.286 43.9954L664.982 42.0648C671.641 27.3291 674.29 3.32257 677.363 -24.5263C682.277 -69.065 688.275 -123.431 713.498 -165.42C725.168 -163.905 737.249 -157.642 750.328 -150.862C769.204 -141.077 790.157 -130.214 814.953 -130.993C807.53 -113.197 789.684 -97.0025 771.917 -80.8811C760.656 -70.6622 749.427 -60.4727 740.905 -49.9232C741.529 -48.6853 741.537 -47.1674 740.792 -45.8775L739.368 -43.4092C738.407 -41.7446 736.492 -40.9753 734.713 -41.3937C733.929 -40.1679 733.19 -38.936 732.499 -37.6976C728.967 -31.3693 727.241 -24.4733 725.535 -17.6548L725.535 -17.6547C724.598 -13.9111 723.667 -10.1909 722.446 -6.60078C738.206 -12.8829 759.342 -26.144 783.167 -53.7927L798.145 -42.7432C796.635 -40.5903 795.108 -38.4877 793.568 -36.4344C795.119 -34.6558 795.557 -28.7339 793.612 -28.4807C791.558 -28.2132 789.497 -28.2569 787.434 -28.6035Z" fill="#89C5CC"/>
<path fill-rule="evenodd" clip-rule="evenodd" d="M671.74 43.5171L681.459 31.0737L676.08 17.136L687.446 11.8586L679.859 -30.0801L691.969 13.4265L680.726 18.827L685.515 31.1572L671.74 43.5171Z" fill="black" fill-opacity="0.1"/>
<path d="M449.92 206.184C449.376 211.896 448.424 217.948 446.452 221.96C448.084 222.572 451.008 223.864 452.368 224.816C454.272 220.464 455.768 213.732 456.38 207.272L449.92 206.184ZM464.88 207.612C466.308 211.352 467.6 216.248 467.872 219.444L473.856 217.54C473.448 214.344 472.088 209.584 470.524 205.912L464.88 207.612ZM482.492 188.708H500.716V192.312H482.492V188.708ZM482.492 179.392H500.716V182.86H482.492V179.392ZM504.728 200.132C503.164 202.172 500.852 204.688 498.54 206.864C497.248 204.348 496.296 201.696 495.548 199.112V198.5H508.332V173.136H494.324C495.344 171.436 496.364 169.532 497.316 167.628L488.204 166.336C487.66 168.376 486.776 170.892 485.824 173.136H475.216V198.5H488.34V204.484L484.26 202.852L483.036 203.056H473.992L474.74 202.716C473.924 198.908 471.34 192.924 468.688 188.3L462.976 190.68C463.724 192.04 464.472 193.536 465.152 195.032L459.236 195.372C463.52 189.932 468.144 183.2 471.884 177.488L465.288 174.428C463.724 177.76 461.548 181.636 459.168 185.444C458.556 184.628 457.808 183.676 456.992 182.792C459.508 178.984 462.296 173.612 464.676 168.92L457.672 166.472C456.584 169.94 454.68 174.496 452.776 178.236C452.232 177.76 451.688 177.284 451.212 176.808L447.268 182.248C449.988 185.036 453.116 188.708 455.02 191.768C454 193.196 452.98 194.556 451.96 195.78L447.064 196.052L447.88 203.056L457.332 202.308V229.916H464.268V201.764L467.668 201.492C468.076 202.988 468.484 204.348 468.688 205.504L473.448 203.328V209.652H480.044C477.8 215.092 474.128 219.24 469.504 221.756C471 222.844 473.516 225.632 474.536 227.128C480.86 223.252 485.824 216.112 488.34 205.776V222.096C488.34 222.844 488.136 223.048 487.252 223.048C486.504 223.048 483.988 223.048 481.676 222.98C482.56 224.952 483.308 227.808 483.58 229.848C487.728 229.848 490.652 229.78 492.828 228.624C495.004 227.536 495.548 225.632 495.548 222.164V214.412C498.268 219.444 502.144 224.136 507.448 227.128C508.468 225.156 510.78 222.028 512.208 220.6C507.924 218.696 504.592 215.772 501.94 212.44C504.864 210.332 508.128 207.544 511.256 204.96L504.728 200.132ZM548.752 218.424V194.896H572.756V186.668H548.752V167.22H540.048V218.424H515.704V226.584H577.516V218.424H548.752ZM633.168 186.26C632.42 192.176 631.264 197.48 629.564 202.104C627.728 197.208 626.368 191.904 625.416 186.26H633.168ZM607.192 194.284H603.248C604.268 193.196 605.22 192.04 606.172 190.884H614.264C613.244 192.72 612.156 194.352 611 195.78L608.62 193.876L607.192 194.284ZM599.848 179.392H605.152C604.2 180.956 603.18 182.452 602.092 183.948H599.848V179.392ZM645.544 186.26V178.78H627.456C628.408 175.176 629.156 171.436 629.836 167.628L621.676 166.404C620.452 174.428 618.412 182.248 615.42 188.572V183.948H611.136C613.856 179.664 616.236 175.108 618.208 170.144L610.728 168.036C609.504 171.232 608.076 174.36 606.444 177.216V172.592H599.848V166.404H592.3V172.592H584.616V179.392H592.3V183.948H582.372V190.884H596.04C594.816 192.04 593.592 193.196 592.3 194.284H587.948V197.548C585.704 199.044 583.324 200.472 580.808 201.696C582.44 203.192 585.16 206.32 586.248 207.884C589.988 205.776 593.456 203.328 596.788 200.54H601.616C600.46 201.764 599.236 202.92 598.08 203.94H595.428V209.244C590.328 209.652 585.636 209.992 581.828 210.264L582.644 217.472C586.384 217.132 590.736 216.724 595.428 216.316V222.096C595.428 222.844 595.156 223.048 594.272 223.116C593.456 223.116 590.464 223.116 587.88 223.048C588.832 224.952 589.852 227.808 590.192 229.916C594.408 229.916 597.536 229.848 599.984 228.76C602.432 227.604 603.044 225.768 603.044 222.3V215.636C607.124 215.296 611.272 214.956 615.352 214.548V207.612C611.272 207.952 607.124 208.36 603.044 208.632V207.272C606.376 204.62 609.844 201.152 612.564 197.956C614.264 199.316 616.168 201.084 617.052 202.104C618.14 200.676 619.16 199.112 620.18 197.412C621.404 202.444 622.9 207.068 624.804 211.216C621.268 216.18 616.576 219.988 610.184 222.844C611.68 224.544 614.06 228.284 614.808 230.188C620.724 227.196 625.416 223.524 629.156 219.036C632.216 223.524 635.956 227.196 640.648 229.984C641.872 227.74 644.388 224.544 646.224 222.912C641.192 220.328 637.248 216.384 634.188 211.556C637.792 204.62 640.104 196.324 641.532 186.26H645.544ZM688.412 174.7C687.596 173.952 686.44 173.068 685.148 172.116C686.44 170.96 687.596 169.668 688.548 168.376L683.312 166.812C682.632 167.696 681.816 168.58 680.932 169.396C679.572 168.58 678.212 167.832 676.988 167.22L673.248 170.348C674.404 170.96 675.628 171.64 676.852 172.388C675.152 173.476 673.384 174.36 671.548 175.108C672.84 175.992 674.948 177.828 675.832 178.78C677.6 177.828 679.436 176.672 681.272 175.38C682.564 176.4 683.652 177.352 684.468 178.168L688.412 174.7ZM694.056 199.112L692.356 199.52H663.456V205.164H685.352C683.992 206.184 682.496 207.136 681.068 207.952H677.056V211.08H651.42V217.404H677.056V222.096C677.056 222.98 676.716 223.184 675.628 223.252C674.54 223.252 670.528 223.252 667.196 223.116C668.216 225.02 669.372 227.808 669.78 229.916C674.88 229.916 678.62 229.916 681.34 228.828C684.196 227.808 684.944 226.108 684.944 222.368V217.404H710.648V211.08H686.78C690.928 208.7 695.144 205.912 698.544 203.192L694.056 199.112ZM705.616 190.748C706.296 184.424 706.84 175.788 707.18 168.58H690.044V173.68H699.292L699.156 175.992H690.316V181.024H698.816L698.68 183.336H690.112V188.368H698.204L698 190.748H664.068L663.932 188.368H672.432V187.756C673.656 188.64 675.084 189.932 675.832 190.68C677.668 189.66 679.64 188.436 681.544 187.008C682.972 188.096 684.196 189.116 685.012 190L689.092 186.6C688.14 185.716 686.848 184.696 685.42 183.676C686.78 182.452 687.936 181.092 688.888 179.732L683.652 178.168C682.972 179.12 682.088 180.072 681.136 180.956C679.776 180.14 678.416 179.392 677.192 178.78L673.452 181.84C674.608 182.52 675.9 183.268 677.124 184.016C675.628 184.968 674.064 185.852 672.432 186.668V183.336H663.66L663.524 181.024H672.228V175.992H663.252L663.184 174.428C666.312 173.612 669.916 172.456 672.772 171.096L669.032 166.744C666.652 167.764 662.98 169.26 659.784 170.28L655.364 169.396L656.656 190.748H651.42V204.688H659.104V196.596H702.76V204.688H710.784V190.748H705.616ZM745.628 202.444V197.412H753.788V199.792C753.788 200.608 753.788 201.56 753.72 202.444H745.628ZM745.628 186.94H753.788V191.904H745.628V186.94ZM769.36 186.94V191.904H761.812V186.94H769.36ZM769.36 202.444H761.744C761.812 201.56 761.812 200.676 761.812 199.86V197.412H769.36V202.444ZM777.18 208.36V181.024H761.812V176.944H778.88V169.872H737.604L737.944 168.988L730.328 166.608C727.2 176.264 721.76 185.92 716.048 192.108C717.408 194.148 719.72 198.5 720.468 200.472C721.624 199.18 722.78 197.752 723.936 196.12V229.78H731.688V183.54C733.796 179.392 735.7 175.108 737.264 170.892V176.944H753.788V181.024H738.148V208.36H752.972C752.36 210.74 751.408 212.916 749.708 214.956C746.92 213.324 744.608 211.488 742.772 209.244L735.768 211.692C738.012 214.752 740.8 217.404 743.86 219.58C741.072 221.144 737.4 222.368 732.844 223.32C734.408 224.952 736.788 228.148 737.74 229.984C743.316 228.284 747.736 226.176 751.068 223.728C758.004 226.788 766.3 228.624 776.16 229.44C777.18 227.196 779.288 223.728 781.056 221.892C771.74 221.416 763.512 220.192 756.848 218.016C758.888 215.024 760.248 211.76 760.996 208.36H777.18ZM805.36 193.944H817.056V186.532H805.36V176.4C809.508 175.38 813.452 174.224 816.852 172.864L811.14 166.608C804.544 169.6 793.596 172.184 783.804 173.612C784.756 175.312 785.776 178.168 786.116 179.936C789.788 179.46 793.664 178.848 797.54 178.1V186.532H784.62V193.944H795.976C792.916 201.016 787.952 208.768 783.056 213.528C784.348 215.568 786.32 219.036 787.136 221.416C790.876 217.472 794.48 211.624 797.54 205.436V229.78H805.36V206.32C808.08 209.108 810.936 212.168 812.568 214.276L817.26 207.34C815.424 205.912 808.692 200.132 805.36 197.616V193.944ZM828.14 174.632H820.252V212.644H828.14V174.632ZM836.3 167.696V219.988C836.3 221.212 835.756 221.62 834.464 221.688C833.036 221.688 828.684 221.688 824.264 221.484C825.488 223.796 826.712 227.536 827.052 229.848C833.24 229.916 837.796 229.644 840.584 228.284C843.372 226.992 844.324 224.748 844.324 220.056V167.696H836.3ZM877.06 221.824C869.92 221.824 868.696 221.348 868.696 218.492V209.108H890.864V186.668H865.024C866.248 185.036 867.404 183.268 868.56 181.5H901.472C900.996 197.276 900.384 203.192 899.296 204.688C898.752 205.504 898.072 205.708 897.052 205.708C895.828 205.708 893.448 205.708 890.932 205.436C892.156 207.476 892.972 210.808 893.04 213.12C896.44 213.188 899.5 213.188 901.404 212.848C903.58 212.508 905.076 211.76 906.504 209.72C908.476 207.068 909.088 198.908 909.7 177.352C909.768 176.264 909.836 173.884 909.836 173.884H872.844C873.728 172.116 874.544 170.28 875.292 168.444L866.656 166.064C863.256 175.176 857.068 184.22 850.132 189.66C852.24 190.952 855.776 193.808 857.34 195.44C859.312 193.604 861.216 191.496 863.12 189.184V193.74H882.908V201.968H860.672V218.628C860.672 227.128 864.344 229.372 876.992 229.372H898.752C909.496 229.372 912.284 226.856 913.576 216.452C911.332 216.112 907.728 214.82 905.892 213.664C905.144 220.668 904.26 221.824 898.412 221.824H877.06Z" fill="#2F1136"/>
<path fill-rule="evenodd" clip-rule="evenodd" d="M775.917 309.569C772.394 311.693 768.931 312.719 767.306 312.3C763.231 311.25 762.856 296.342 766.01 290.464C769.163 284.587 785.373 282.025 786.19 293.67C786.473 297.712 784.776 301.319 782.269 304.262L786.765 325.216H773.706L775.917 309.569Z" fill="#B28B67"/>
<path fill-rule="evenodd" clip-rule="evenodd" d="M783.272 306.883C784.912 299.591 789.581 294.62 788.868 291.361C788.155 288.102 785.066 287.307 785.066 287.307C785.066 287.307 783.469 280.846 774.764 281.811C766.058 282.775 760.744 286.391 763.039 294.346C765.148 294.346 767.695 293.583 771.216 294.89C772.892 295.512 773.613 298.748 773.613 298.748H775.204C775.204 298.748 777.521 294.908 779.772 295.926C782.024 296.944 780.796 300.871 780.796 300.871L781.58 306.883H783.272Z" fill="#191847"/>
<path fill-rule="evenodd" clip-rule="evenodd" d="M765.818 305.522L765.777 305.513C765.452 305.436 765.14 305.332 764.838 305.533C764.549 305.725 764.509 306.079 764.734 306.338C764.965 306.604 765.271 306.589 765.595 306.593L765.615 306.593C765.883 306.597 766.156 306.593 766.424 306.569C766.673 306.547 766.924 306.511 767.171 306.465L767.317 306.436C767.466 306.406 767.613 306.367 767.689 306.222C767.823 305.971 766.828 305.774 766.707 305.739C766.414 305.655 766.115 305.589 765.818 305.522Z" fill="#231F20"/>
<path fill-rule="evenodd" clip-rule="evenodd" d="M765.266 302.49C765.424 302.655 765.634 302.767 765.869 302.837C766.46 303.013 767.214 302.919 767.697 302.74C767.797 302.703 767.891 302.627 767.945 302.533C767.994 302.446 768.01 302.344 767.973 302.24C767.962 302.211 767.949 302.182 767.936 302.154C767.901 302.076 767.829 302.016 767.744 301.981C767.656 301.945 767.556 301.938 767.476 301.963C767.465 301.967 767.454 301.97 767.442 301.974C767.137 302.07 766.635 302.23 766.219 302.199C765.97 302.18 765.751 302.092 765.637 301.864C765.577 301.744 765.594 301.625 765.647 301.516C765.727 301.351 765.887 301.208 766.022 301.11C766.212 300.971 766.415 300.915 766.625 300.857C766.704 300.835 766.784 300.812 766.865 300.785C766.891 300.777 766.915 300.759 766.932 300.737C766.95 300.715 766.961 300.688 766.964 300.66C766.968 300.632 766.964 300.604 766.95 300.58C766.938 300.558 766.919 300.538 766.89 300.525C766.48 300.341 765.949 300.462 765.548 300.752C765.348 300.897 765.181 301.082 765.078 301.29C764.982 301.483 764.941 301.694 764.979 301.91C765.021 302.151 765.123 302.342 765.266 302.49Z" fill="#231F20"/>
<path fill-rule="evenodd" clip-rule="evenodd" d="M772.219 297.007C772.103 296.956 772.008 297.194 771.985 297.259L771.936 297.394C771.856 297.611 771.764 297.832 771.595 297.993C771.454 298.128 771.228 298.242 771.065 298.084C770.91 297.934 770.985 297.766 770.962 297.582C770.921 297.25 770.468 296.918 770.196 297.264C769.581 298.048 770.533 299.137 771.409 298.946C771.855 298.849 772.214 298.491 772.361 298.066L772.369 298.044C772.457 297.774 772.546 297.152 772.219 297.007Z" fill="#231F20"/>
<path fill-rule="evenodd" clip-rule="evenodd" d="M764.801 297.693L764.805 297.683C765.077 297.015 764.106 296.727 764.023 297.327L764.018 297.368C763.938 298.034 764.107 298.93 764.863 298.996C765.712 299.071 766.066 298.049 765.99 297.299C765.976 297.165 765.825 297.146 765.779 297.268L765.769 297.295C765.632 297.672 765.502 298.396 765.019 298.396C764.696 298.395 764.711 297.925 764.801 297.693Z" fill="#231F20"/>
<path fill-rule="evenodd" clip-rule="evenodd" d="M795.453 371.166L775.007 438.139L765.103 495.096H757.337L767.803 371.166H795.453Z" fill="#997659"/>
<path fill-rule="evenodd" clip-rule="evenodd" d="M802.768 371.166C801.379 407.938 803.013 426.906 803.324 430.247C803.635 433.587 807.891 455.25 817.967 496.218L809.692 493.37C793.768 455.797 788.342 436.269 786.515 431.335C784.689 426.402 779.838 406.345 771.963 371.166H802.768Z" fill="#B28B67"/>
<path fill-rule="evenodd" clip-rule="evenodd" d="M798.17 371.166L789.477 405.288H762.924L766.883 371.166H798.17Z" fill="#69A1AC"/>
<path fill-rule="evenodd" clip-rule="evenodd" d="M803.06 371.166C807.351 384.052 804.69 405.288 804.69 405.288H777.594L770.143 371.166H803.06Z" fill="#89C5CC"/>
<path fill-rule="evenodd" clip-rule="evenodd" d="M832.626 388.329C830.597 385.353 816.924 345.306 816.924 345.306L805.131 347.009C805.131 347.009 824.738 388.71 825.858 390.65C827.313 393.169 826.025 397.308 825.151 400.114C825.016 400.549 824.89 400.951 824.787 401.31C826.621 401.839 827.319 400.79 828.055 399.685C828.886 398.437 829.766 397.116 832.385 397.913C833.397 398.22 834.369 398.616 835.319 399.002C838.6 400.336 841.614 401.561 845.077 398.693C845.626 398.238 846.089 396.752 844.345 395.886C839.998 393.73 833.618 389.783 832.626 388.329ZM730.997 386.259L744.172 369.249L750.473 377.294L735.913 388.866C732.812 395.684 730.855 398.716 730.04 397.964C729.354 397.329 729.512 396.506 729.657 395.748C729.771 395.157 729.877 394.605 729.57 394.213C728.869 393.318 725.76 394.324 722.851 395.405C719.943 396.485 720.43 394.916 720.96 394.058C723.476 391.374 726.821 388.774 730.997 386.259Z" fill="#B28B67"/>
<path fill-rule="evenodd" clip-rule="evenodd" d="M776.274 316.947L771.502 316.804C767.802 343.736 732.57 366.691 731.616 376.698C731.266 380.368 734.078 381.803 732.908 383.071L739.586 386.645C740.444 385.307 742.94 387.184 747.295 385.013C751.651 382.842 780.584 347.615 776.274 316.947Z" fill="#FFA5A1"/>
<path fill-rule="evenodd" clip-rule="evenodd" d="M782.017 310.754C784.178 310.295 786.303 311.675 786.762 313.835L787.046 315.168C796.761 320.672 821.324 337.746 832.253 374.421C833.401 378.273 832.622 380.533 831.999 382.338C831.573 383.573 831.22 384.596 831.608 385.77L823.989 389.068C823.864 388.178 822.769 387.642 821.358 386.949C819.305 385.943 816.582 384.607 815.19 381.377C813.871 378.316 812.036 374.518 809.889 370.308C810.569 376.188 810.213 381.733 808.415 386.537C803.931 398.522 767.253 391.224 762.004 380.378C759.204 374.59 761.254 369.113 763.966 361.868C767.416 352.651 771.937 340.574 768.899 321.36C768.878 321.282 768.859 321.204 768.842 321.125L768.133 317.793C767.674 315.632 769.053 313.508 771.214 313.049L782.017 310.754Z" fill="#FFA5A1"/>
<path fill-rule="evenodd" clip-rule="evenodd" d="M159.504 361.641C161.423 360.259 164.401 361.14 166.333 361.956C167.077 362.27 168.98 363.276 170.391 364.408C170.204 363.623 170.038 362.832 169.893 362.034C169.296 358.752 168.885 355.409 168.687 352.085C168.635 351.218 168.702 350.249 168.77 349.268L168.77 349.268C168.793 348.935 168.817 348.601 168.835 348.269C168.758 348.191 168.706 348.082 168.684 347.936C168.676 347.997 168.671 348.045 168.668 348.083C168.662 348.143 168.659 348.173 168.649 348.176C168.638 348.179 168.621 348.153 168.585 348.101C168.571 348.081 168.554 348.057 168.535 348.03C167.107 346.018 165.908 343.751 165.743 341.259C165.604 339.145 167.447 335.147 170.059 337.915C171.228 339.151 170.925 347.834 169.169 348.366C169.638 351.243 170.228 354.116 170.966 356.951C171.077 356.933 171.19 356.931 171.302 356.946C171.291 356.241 171.29 355.471 171.321 355.207C171.584 352.928 173.604 348.301 176.821 349.2C179.292 349.89 177.777 352.732 176.936 353.976C175.582 355.978 174.051 356.845 172.111 357.886C172.072 358.317 171.778 358.567 171.43 358.648C172.729 363.228 174.435 367.695 176.668 371.914L176.727 371.646L176.727 371.646C177.011 370.365 177.341 368.872 177.551 368.558C178.645 366.917 181.068 364.912 183.302 365.883C187.995 367.926 182.901 373.796 178.907 374.435C178.74 374.651 178.565 374.825 178.378 374.925C179.154 376.198 179.984 377.445 180.871 378.66C182.202 380.488 183.633 382.309 185.133 384.12C185.179 382.704 185.773 379.546 185.941 379.207C186.966 377.147 189.918 375.028 192.314 376.491C195.007 378.141 192.565 381.259 191.028 382.67C190.398 383.248 187.283 385.369 186.185 385.378C189.808 389.649 193.808 393.846 197.875 397.891C197.538 396.08 197.098 391.093 197.147 390.539C197.4 387.682 199.392 383.112 203.318 384.225C207.127 385.304 205.442 390.052 204.138 392.315C203.348 393.685 202.257 395.076 200.94 396.032C200.702 396.204 200.392 396.344 200.083 396.484L200.083 396.485C199.71 396.654 199.337 396.822 199.094 397.046C198.877 397.245 198.811 397.474 198.745 397.7C198.675 397.94 198.606 398.177 198.361 398.375C200.559 400.552 202.772 402.684 204.953 404.756C205.983 405.734 207.031 406.693 208.089 407.64C208.668 407.414 209.494 407.712 209.451 408.484C209.444 408.597 209.417 408.694 209.38 408.782C210.182 409.486 210.989 410.184 211.802 410.874C211.784 410.673 211.789 410.389 211.827 409.998C211.241 410.783 211.265 409.639 211.284 408.767C211.291 408.459 211.297 408.185 211.275 408.042C211.188 407.482 211.077 406.927 210.966 406.373C210.728 405.19 210.492 404.011 210.504 402.79C210.529 400.198 212.271 395.853 215.936 397.396C219.306 398.813 218.08 402.654 216.809 405.063C216.004 406.587 214.903 407.948 213.752 409.25C213.546 409.483 213.318 409.798 213.093 410.11C212.758 410.572 212.428 411.028 212.184 411.198C215.313 413.842 218.516 416.408 221.719 418.974L221.719 418.974C223.154 420.124 224.589 421.273 226.017 422.43C226.079 422.176 226.131 421.924 226.175 421.689C226.086 421.784 225.964 421.828 225.808 421.82C225.767 421.625 225.706 421.367 225.634 421.056C224.752 417.265 222.066 405.719 229.34 407.957C234.669 409.601 230.907 419.655 226.933 423.172C229.345 425.135 231.734 427.124 234.067 429.172C235.756 430.654 237.394 432.187 238.97 433.77C238.155 431.72 237.386 429.065 237.891 426.952C238.625 423.877 242.066 420.974 245.426 422.724C249.614 424.914 246.392 427.906 243.37 430.711L243.37 430.711C241.828 432.144 240.337 433.527 239.912 434.731C244.923 439.926 249.2 445.698 252.058 452.273C255.167 459.422 258.053 469.029 256.457 477.028C256.752 473.511 255.491 469.095 254.606 465.993L254.606 465.993C254.486 465.571 254.372 465.173 254.27 464.805C252.941 459.995 251.051 455.314 248.561 450.934C244.573 443.918 239.306 437.962 233.224 432.554C231.839 433.009 230.335 433.852 229.089 434.549C228.325 434.977 227.659 435.351 227.176 435.547C224.849 436.494 220.381 437.85 218.899 434.869C217.441 431.937 221.162 430.297 223.467 429.64C225.696 429.006 227.705 429.083 229.783 429.603C226.564 426.912 223.267 424.306 219.97 421.701L219.969 421.7L219.966 421.697C219.361 421.219 218.755 420.741 218.151 420.262C217.313 420.91 216.387 421.847 215.404 422.841C212.285 425.997 208.589 429.736 205.289 426.682C200.308 422.071 209.834 417.385 213.893 417.751C214.391 417.796 214.873 417.895 215.343 418.03C211.204 414.717 207.129 411.336 203.276 407.717C202.584 407.836 201.483 408.795 200.161 409.948C197.189 412.539 193.097 416.105 190.015 413.297C187.79 411.27 188.552 408.113 190.702 406.308C192.861 404.495 195.992 404.498 198.652 405.109C199.802 405.371 200.863 405.873 201.852 406.484L201.915 406.487L201.975 406.49C198.183 402.891 194.368 399.212 190.693 395.407L190.651 395.419C190.601 395.435 190.549 395.451 190.497 395.466C190.275 395.723 189.903 395.817 189.562 395.76C189.375 395.821 189.183 395.883 188.987 395.947C186.076 396.894 182.335 398.112 179.434 397.587C177.299 397.2 175.362 395.564 177.169 393.548C178.639 391.91 182.625 392.145 184.569 392.533C185.518 392.723 186.551 393.272 187.587 393.824L187.587 393.824C188.022 394.055 188.458 394.287 188.889 394.493C189.001 394.28 189.196 394.144 189.418 394.078C185.79 390.254 182.327 386.299 179.187 382.171C178.236 382.31 177.182 382.703 176.095 383.11C173.478 384.087 170.67 385.136 168.655 382.877C165.68 379.542 171.275 377.595 173.935 377.912C174.833 378.019 175.719 378.259 176.574 378.576C174.288 375.177 172.543 371.545 171.317 367.73C171.305 367.735 171.294 367.741 171.283 367.747C171.266 367.756 171.249 367.765 171.228 367.774C171.246 367.765 171.262 367.755 171.278 367.745C171.286 367.74 171.294 367.736 171.301 367.731C171.306 367.729 171.31 367.726 171.315 367.723C171.193 367.342 171.075 366.958 170.964 366.573C170.756 366.464 170.562 366.384 170.469 366.351C171.677 367.137 166.579 367.521 165.624 367.593C163.513 367.752 160.685 367.812 159.137 366.181C157.836 364.811 157.912 362.787 159.504 361.641ZM256.684 477.039C256.594 478.198 256.372 479.26 255.957 480.135C256.269 479.138 256.507 478.103 256.684 477.039Z" fill="#EAEAEA"/>
<path fill-rule="evenodd" clip-rule="evenodd" d="M292.714 362.65C294.381 357.091 298.294 352.74 302.356 348.754C310.263 340.992 314.516 336.194 317.334 324.841C318.992 318.164 320.679 311.088 325.936 306.244C329.763 302.716 336.351 299.752 341.47 302.278C349.345 306.979 351.46 316.625 350.666 325.262C349.681 335.968 344.681 342.569 335.074 346.512C329.661 348.732 326.062 351.663 323.124 356.769C320.774 360.851 319.403 365.964 316.45 369.665C312.034 375.198 306.508 377.658 299.697 376.739C306.076 365.001 313.53 353.153 322.521 343.27C323.362 342.276 328.326 338.474 327.325 336.78C326.222 334.916 321.126 341.919 321.162 341.877C318.55 344.876 316.132 348.063 313.758 351.281C313.764 351.284 313.771 351.286 313.778 351.289C311.333 354.591 308.909 357.941 306.53 361.333C305.568 362.768 304.632 364.221 303.735 365.711C302.42 367.897 300.333 374.101 298.18 375.445C297.72 375.733 297.294 375.893 296.896 375.96C295.427 378.364 293.998 380.788 292.639 383.24C289.09 389.646 286.044 396.409 284.646 403.641C284.238 405.751 284.526 413.647 283.086 415.171C280.451 417.958 281.223 412.591 281.381 410.971C282.689 397.556 287.505 386.127 294.498 374.849C292.349 372.044 292.039 364.903 292.714 362.65Z" fill="#EAEAEA"/>
<path fill-rule="evenodd" clip-rule="evenodd" d="M183.541 397.022C186.318 393.75 192.994 393.195 197.077 393.414C202.129 393.685 207.319 394.915 212.125 396.402C220.043 398.852 227.737 403.322 234.71 407.648C235.551 408.17 245.904 414.396 244.988 415.489C244.08 416.571 233.916 409.175 231.651 407.901C226.817 405.18 222.384 401.962 217.056 400.165C211.539 398.304 205.705 397.567 199.903 397.618C199.159 397.625 196.73 397.106 196.678 398.207C196.627 399.285 200.645 398.723 201.354 398.729C204.28 398.756 207.225 399.031 210.11 399.539C215.516 400.489 220.598 402.403 225.228 405.339C223.936 408.343 220.839 409.728 217.591 408.976C214.783 408.326 212.046 406.724 209.297 406.26C207.403 405.941 205.507 406.131 203.671 406.664C198.828 408.072 196.034 410.956 190.709 408.95C186.534 407.377 179.553 401.728 183.541 397.022Z" fill="#EAEAEA"/>
<g opacity="0.7">
<path fill-rule="evenodd" clip-rule="evenodd" d="M232.067 385.446C236.661 385.207 242.341 387.888 242.831 392.881C243.187 396.509 243.077 400.126 243.628 403.749C244.068 406.643 245 409.423 246.271 412.06C247.492 414.595 250.027 416.754 250.686 419.463C251.106 421.189 250.871 423.617 250.292 425.306C249.587 427.358 249.962 427.196 251.366 428.919C254.117 432.294 256.594 435.756 258.346 439.787C260.869 445.594 262.524 452.382 261.587 458.739C261.468 459.546 261.327 462.442 260.215 462.645C258.974 462.871 259.554 461.215 259.621 460.679C260.043 457.265 260.418 454.28 259.909 450.812C257.943 437.432 248.344 428.616 242.094 417.26C241.75 416.674 241.025 415.28 240.521 414.36C239.724 412.907 238.924 410.143 237.846 409.066C235.816 407.037 237.682 411.116 238.078 411.895C238.578 412.88 239.128 413.927 239.641 414.79C241.986 418.791 244.603 423.158 247.025 427.282C236.55 429.669 229.174 417.076 226.363 408.797C224.047 401.976 221.276 386.029 232.067 385.446Z" fill="#69A1AC"/>
<path fill-rule="evenodd" clip-rule="evenodd" d="M293.63 372.779C285.952 373.388 281.022 378.455 278.728 385.542C277.491 389.361 277.349 393.284 276.662 397.209C275.628 403.114 273.404 407.588 269.056 411.795C267.71 413.098 266.717 414.436 266.012 415.867C264.612 417.296 263.393 418.913 262.497 420.89C261.353 423.414 261.03 426.444 262.35 428.961C262.706 429.637 263.591 430.996 264.51 431.613C261.072 438.934 259.182 446.952 259.395 454.959C259.524 459.793 259.76 464.629 260.035 469.457C260.109 470.754 260.531 472.894 261.166 470.72C261.746 468.732 261.018 465.61 260.951 463.532C260.623 453.412 260.343 444.21 264.509 434.755C264.946 433.764 265.409 432.781 265.892 431.805C265.92 431.789 265.946 431.769 265.973 431.75C265.991 431.764 266.008 431.779 266.026 431.793C266.057 431.738 266.099 431.673 266.148 431.6C266.287 431.457 266.408 431.277 266.522 431.075C266.892 430.563 267.31 429.962 267.312 429.632C267.312 429.63 267.311 429.626 267.311 429.623C269.89 425.413 272.844 421.435 275.861 417.535C275.839 417.563 279.134 413.077 278.624 415.558C278.379 416.754 275.955 419.031 274.976 420.297C272.81 423.115 270.267 426.686 268.154 430.138C267.87 430.302 267.468 431.104 267.177 431.702C267.017 432.004 266.867 432.31 266.72 432.576C274.208 435.05 280.033 430.066 284.005 424.27C284.01 424.263 284.014 424.256 284.018 424.249C285.227 422.648 286.465 421.057 288.012 419.791C290.593 417.679 293.357 417.306 296.399 416.266C304.697 413.431 308.225 402.677 309.346 394.698C310.61 385.696 304.426 371.891 293.63 372.779Z" fill="#89C5CC"/>
<path fill-rule="evenodd" clip-rule="evenodd" d="M278.463 347.569C270.582 355.771 266.775 367.148 263.76 377.843C260.393 389.788 258.169 401.917 258.083 414.337C258.027 422.496 257.805 430.707 258.282 438.857C258.451 441.751 258.739 444.651 259.198 447.514C259.236 447.749 260.262 454.143 261.244 452.653C261.803 451.806 260.192 446.021 260.07 445.057C259.386 439.63 259.227 434.163 259.26 428.697C259.315 419.697 259.05 410.743 259.962 401.776C260.098 400.437 260.205 399.031 260.523 397.722C260.861 396.329 260.431 396.937 261.531 396.386C262.6 395.85 263.92 395.926 265.029 395.254C269.427 392.587 271.677 385.737 273.428 381.242C275.431 376.102 276.648 370.621 277.62 365.212C278.334 361.237 278.845 357.287 279.133 353.262C279.224 351.993 279.23 350.666 279.479 349.419C279.546 349.082 279.883 348.487 279.871 348.189C279.845 347.559 279.465 347.188 279.433 346.658C279.104 346.955 278.78 347.259 278.463 347.569Z" fill="#89C5CC"/>
<path fill-rule="evenodd" clip-rule="evenodd" d="M276.883 435.345C282.962 434.897 289.75 439.8 292.682 444.904C295.046 449.018 294.647 454.421 293.188 458.792C292.21 461.719 290.076 465.891 286.518 465.932C282.066 465.983 281.852 460.481 281.765 457.264C281.651 452.988 281.111 449.263 277.741 446.348C277.325 445.988 276.889 445.651 276.452 445.315C276.065 445.016 275.677 444.717 275.304 444.402C275.244 444.351 275.185 444.301 275.124 444.251C273.933 443.249 272.682 442.197 272.529 440.547C272.308 438.154 273.659 437.724 275.72 438.168C275.787 438.183 275.968 438.251 276.213 438.344C277.266 438.743 279.513 439.595 279.088 438.577C278.928 438.193 278.343 437.889 277.606 437.662C275.697 437.454 273.42 437.213 272.765 437.357C265.701 438.907 262.951 448.691 262.221 454.908C262.142 455.579 262.078 456.252 262.023 456.927H260.725C260.815 455.298 260.934 453.673 261.206 452.063C262.247 445.905 265.502 436.861 272.642 435.861C272.905 435.824 273.874 435.818 275.048 435.887C275.604 435.576 276.227 435.388 276.883 435.345Z" fill="#69A1AC"/>
</g>
<g clip-path="url(#clip1)">
<path fill-rule="evenodd" clip-rule="evenodd" d="M941.5 115.299C964.972 115.299 984 105.226 984 92.7994C984 80.373 964.972 70.2994 941.5 70.2994C918.028 70.2994 899 80.373 899 92.7994C899 105.226 918.028 115.299 941.5 115.299Z" fill="#F2F2F2"/>
<path fill-rule="evenodd" clip-rule="evenodd" d="M991 108.299C991 80.6852 968.838 58.2994 941.5 58.2994C914.162 58.2994 892 80.6852 892 108.299" fill="#DDE3E9"/>
<rect x="939" y="-94.3741" width="5" height="160" fill="#DDE3E9"/>
</g>
<g opacity="0.7" clip-path="url(#clip2)">
<path fill-rule="evenodd" clip-rule="evenodd" d="M843 81.6259C860.545 81.6259 874.768 73.4964 874.768 63.468C874.768 53.4397 860.545 45.3101 843 45.3101C825.455 45.3101 811.232 53.4397 811.232 63.468C811.232 73.4964 825.455 81.6259 843 81.6259Z" fill="#F2F2F2"/>
<path fill-rule="evenodd" clip-rule="evenodd" d="M880 75.9768C880 53.6916 863.435 35.6259 843 35.6259C822.565 35.6259 806 53.6916 806 75.9768" fill="#DDE3E9"/>
<rect x="841" y="-77.3741" width="5" height="136" fill="#DDE3E9"/>
</g>
<path fill-rule="evenodd" clip-rule="evenodd" d="M762 326.064C762 325.188 760.106 325 758.472 325C756.837 325 755 325.257 755 326.064C755 326.871 756.926 327 758.125 327C759.325 327 762 326.939 762 326.064Z" fill="white"/>
<path fill-rule="evenodd" clip-rule="evenodd" d="M761.5 320C760.119 320 759 319.105 759 318C759 316.895 760.119 316 761.5 316C762.881 316 764 316.895 764 318C764 319.105 762.881 320 761.5 320Z" fill="white"/>
<path fill-rule="evenodd" clip-rule="evenodd" d="M754.5 320C753.119 320 752 319.105 752 318C752 316.895 753.119 316 754.5 316C755.881 316 757 316.895 757 318C757 319.105 755.881 320 754.5 320Z" fill="white"/>
</g>
<defs>
<clipPath id="clip0">
<rect width="1240" height="441.887" fill="white" transform="translate(0 0.625931)"/>
</clipPath>
<clipPath id="clip1">
<rect width="99" height="210" fill="white" transform="translate(892 -94.3741)"/>
</clipPath>
<clipPath id="clip2">
<rect width="74" height="159" fill="white" transform="translate(806 -77.3741)"/>
</clipPath>
</defs>
</svg>
