<svg width="320" height="519" viewBox="0 0 320 519" fill="none" xmlns="http://www.w3.org/2000/svg">
<g clip-path="url(#clip0)">
<rect width="320" height="519" fill="white"/>
<g opacity="0.7">
<path fill-rule="evenodd" clip-rule="evenodd" d="M64 91C81.5448 91 95.7677 82.8704 95.7677 72.8421C95.7677 62.8138 81.5448 54.6842 64 54.6842C46.4552 54.6842 32.2323 62.8138 32.2323 72.8421C32.2323 82.8704 46.4552 91 64 91Z" fill="#F2F2F2"/>
<path fill-rule="evenodd" clip-rule="evenodd" d="M101 85.3509C101 63.0657 84.4345 45 64 45C43.5655 45 27 63.0657 27 85.3509" fill="#DDE3E9"/>
<rect x="62" y="-68" width="5" height="136" fill="#DDE3E9"/>
</g>
<path fill-rule="evenodd" clip-rule="evenodd" d="M312.689 158.198C309.899 159.37 307.272 159.748 306.137 159.267C303.289 158.062 304.627 147.132 307.553 143.178C310.479 139.223 322.535 139.094 321.871 147.688C321.64 150.67 320.018 153.123 317.878 155.003L318.881 170.793L309.392 169.389L312.689 158.198Z" fill="#B28B67"/>
<path fill-rule="evenodd" clip-rule="evenodd" d="M318.324 157.026C320.302 151.875 324.232 148.746 324.066 146.289C323.9 143.831 321.742 142.919 321.742 142.919C321.742 142.919 321.279 138.028 314.849 137.797C308.419 137.566 304.167 139.636 304.975 145.694C306.508 145.921 308.441 145.637 310.858 146.97C312.009 147.605 312.183 150.046 312.183 150.046L313.34 150.217C313.34 150.217 315.438 147.661 316.964 148.646C318.49 149.631 317.174 152.368 317.174 152.368L317.094 156.844L318.324 157.026Z" fill="#191847"/>
<path fill-rule="evenodd" clip-rule="evenodd" d="M325.163 202.165L276.913 234.357L238.695 262.795L234.353 260.732L307.55 193.798L325.163 202.165Z" fill="#997659"/>
<path fill-rule="evenodd" clip-rule="evenodd" d="M240.071 261.325C241.233 261.475 242.201 262.431 242.012 263.586C241.921 264.141 241.799 264.677 241.638 265.016C241.173 265.995 239.954 267.718 239.954 267.718C238.819 267.179 219.545 258.023 219.545 258.023C219.545 258.023 220 255.014 221.813 255.618C223.627 256.223 224.841 256.592 224.841 256.592L235.72 256.854C236.283 256.868 236.724 257.344 236.694 257.906L236.634 259.06C236.634 259.06 237.869 260.554 238.861 261.025C239.168 261.171 239.609 261.265 240.071 261.325Z" fill="#E4E4E4"/>
<path fill-rule="evenodd" clip-rule="evenodd" d="M247.185 259.367L240.016 252.855C240.016 252.855 253.336 239.014 270.711 223.046C288.085 207.078 305.985 193.054 305.985 193.054L329.633 204.289C329.633 204.289 308.396 222.696 287.951 236.273C267.506 249.849 247.185 259.367 247.185 259.367Z" fill="#FFA5A2"/>
<path fill-rule="evenodd" clip-rule="evenodd" d="M326.93 203.004C321.96 220.011 317.264 242.524 317.43 243.367C317.541 243.928 326.861 252.911 345.391 270.315L342.634 273.699C318.349 257.549 305.998 248.103 305.581 245.361C304.955 241.246 306.131 211.652 309.241 194.601L326.93 203.004Z" fill="#B28B67"/>
<path fill-rule="evenodd" clip-rule="evenodd" d="M339.279 263.353L334.696 268.736C314.383 261.183 303.022 254.27 300.613 247.998C298.204 241.726 300.622 223.71 307.867 193.948L330.417 204.661C323.442 228.537 319.944 241.04 319.923 242.171C319.902 243.303 326.353 250.363 339.279 263.353Z" fill="#FFA5A1"/>
<path fill-rule="evenodd" clip-rule="evenodd" d="M272.522 180.951L288.107 184.311L284.738 191.138L272.347 185.093C266.797 185.211 264.143 184.875 264.386 184.085C264.591 183.419 265.193 183.259 265.747 183.113C266.178 182.998 266.581 182.891 266.745 182.559C267.12 181.799 265.454 180.036 263.803 178.431C262.151 176.826 263.357 176.647 264.1 176.726C266.699 177.55 269.506 178.958 272.522 180.951ZM346.172 225.488C345.185 223.03 337.307 191.768 337.307 191.768L328.569 191.126C328.569 191.126 340.447 224.515 340.945 226.085C341.592 228.124 340.012 230.893 338.941 232.771C338.775 233.061 338.622 233.331 338.49 233.572C339.724 234.242 340.391 233.599 341.094 232.922C341.888 232.157 342.729 231.347 344.484 232.333C345.162 232.714 345.798 233.152 346.419 233.579C348.564 235.056 350.535 236.412 353.476 234.9C353.942 234.66 354.509 233.665 353.393 232.768C350.613 230.532 346.654 226.689 346.172 225.488Z" fill="#997659"/>
<path fill-rule="evenodd" clip-rule="evenodd" d="M315.513 162.262L308.638 162.189C305.78 177.274 295.863 186.176 275.571 181.338L271.33 200.72C290.339 204.678 307.771 198.303 312.825 177.791C314.133 172.481 315.27 166.938 315.513 162.262Z" fill="#AFB9C5"/>
<path fill-rule="evenodd" clip-rule="evenodd" d="M319.069 160.533L319.725 160.584C333.957 175.57 342.475 195.858 345.278 221.449L324.322 219.833C324.564 215.051 324.68 210.385 324.634 205.834L296.646 203.675C297.829 199.797 299.251 196.096 300.698 192.329C304.05 183.607 307.536 174.535 308.494 162.107L319.041 160.537L319.046 160.532L319.067 160.533L319.069 160.533C319.069 160.533 319.069 160.533 319.069 160.533Z" fill="#C5CFD6"/>
<path fill-rule="evenodd" clip-rule="evenodd" d="M272.996 186.301C287.621 185.123 301.597 185.071 315.004 186.622C301.2 188.118 284.206 190.757 274.501 195.209L272.996 186.301Z" fill="black" fill-opacity="0.1"/>
<path fill-rule="evenodd" clip-rule="evenodd" d="M69.7141 298.966C73.5364 300.481 77.1243 300.852 78.6663 300.075C82.5331 298.129 80.5484 282.323 76.4996 276.771C72.4507 271.219 56.0049 271.852 57.0362 284.305C57.3941 288.628 59.6435 292.084 62.5899 294.673L61.4516 317.706L74.3748 315.019L69.7141 298.966Z" fill="#D4A181"/>
<path fill-rule="evenodd" clip-rule="evenodd" d="M68.0638 271.156C66.3159 271.212 61.6992 271.961 60.8535 272.137C60.313 272.249 59.747 272.503 59.3477 272.04C59.0207 271.662 59.007 270.909 58.8534 270.422C58.6751 269.857 58.4598 269.307 58.2431 268.759C57.6267 267.2 56.8319 265.76 55.8272 264.462C53.9421 262.026 51.4603 260.327 48.5462 259.644C45.3282 258.89 41.8733 259.283 38.676 260.236C35.2546 261.256 32.2995 263.129 29.1987 264.957C26.2438 266.7 23.0417 267.81 19.6998 267.954C16.3328 268.099 13.5651 266.716 10.5231 265.49C7.40897 264.235 3.98515 263.702 0.671882 264.677C-2.42093 265.588 -5.10075 267.566 -7.41449 269.946C-9.57926 272.173 -11.2679 274.662 -11.9597 277.814C-12.7039 281.205 -12.1869 284.65 -9.77484 287.008C-6.2787 290.427 -0.750288 290.349 3.70411 289.317C6.28062 288.719 8.74449 287.688 11.0484 286.265C14.1209 284.368 16.6242 281.714 19.4182 279.402C20.7295 278.317 22.1099 277.363 23.5886 276.575C25.0235 275.81 26.4725 275.295 27.9779 275.979C29.5705 276.704 31.0108 277.442 32.7532 277.74C34.4248 278.027 36.1494 278.023 37.8302 277.659C41.1004 276.951 44.1651 275.192 47.2361 273.802C49.7404 272.669 52.4264 271.5 55.1557 271.522C56.2946 271.53 57.9796 271.687 58.5612 272.827C52.0489 275.517 50.7392 284.907 53.6019 291.005C55.1469 294.297 61.8939 297.117 64.003 294.779C65.3391 293.298 64.1924 291.957 63.4474 291.069C62.0206 289.369 61.2591 286.962 63.1607 285.176C64.8011 283.636 67.1224 286.001 67.158 285.99C67.6504 285.845 71.5705 282.351 73.9717 277.942C76.9283 277.518 77.0643 275.367 76.1128 273.828C75.1613 272.29 70.4788 271.078 68.0638 271.156Z" fill="#191847"/>
<path fill-rule="evenodd" clip-rule="evenodd" d="M77.7857 295.222C77.2193 295.194 76.6585 295.011 76.1833 294.692C76.0181 294.581 75.9331 294.432 75.9054 294.279C75.8743 294.106 75.9183 293.924 76.0143 293.779C76.1106 293.633 76.2577 293.526 76.4255 293.495C76.5713 293.468 76.7356 293.496 76.8999 293.615L76.9338 293.638C77.2177 293.832 77.5432 293.958 77.8768 293.996C78.1983 294.032 78.5274 293.986 78.8325 293.838C79.4136 293.556 79.7148 293.08 80.0007 292.476C80.0358 292.4 80.0703 292.323 80.1047 292.244C80.1208 292.178 80.1571 292.127 80.2045 292.09C80.2571 292.049 80.3251 292.026 80.3946 292.026C80.4616 292.026 80.529 292.047 80.5833 292.087C80.635 292.125 80.6762 292.18 80.695 292.254C80.8177 292.732 80.7226 293.23 80.4948 293.675C80.2419 294.17 79.8261 294.597 79.3827 294.851C78.8942 295.132 78.3375 295.25 77.7857 295.222ZM70.741 286.792C70.5335 286.003 71.6561 285.412 72.0412 286.129C72.3861 286.772 72.4819 287.44 72.3871 288.161C72.2965 288.85 71.455 288.84 71.2111 288.328C70.8841 287.641 70.8701 287.283 70.741 286.792ZM78.0558 282.57C78.1168 282.309 78.2622 282.094 78.5268 282.093C79.3534 282.091 79.5766 283.417 79.5323 284.116C79.5082 284.496 79.0837 284.739 78.7761 284.521C78.2746 284.165 77.7808 283.274 78.0414 282.657C78.0445 282.629 78.0487 282.6 78.0558 282.57ZM71.1963 283.06L71.3462 283.037C71.8097 282.966 72.3857 282.901 72.706 283.273C72.8758 283.471 72.9289 283.833 72.6924 284.015C72.2765 284.335 71.8255 284.2 71.3338 284.218C70.9285 284.234 70.5382 284.293 70.1462 284.396C69.2862 284.621 68.581 285.049 67.8415 285.519C67.7444 285.58 67.6488 285.458 67.6961 285.37C68.1329 284.563 68.9625 283.908 69.7888 283.515C70.2298 283.306 70.7113 283.134 71.1963 283.06ZM75.9182 280.989L75.9723 280.933C76.5662 280.325 77.4978 279.616 78.7471 279.817C78.9059 279.88 78.9316 279.911 78.9473 279.932L78.9525 279.94C78.966 279.958 78.9874 279.978 78.9862 280.032C78.9757 280.042 78.9649 280.052 78.9538 280.062C78.8123 280.187 78.6637 280.268 78.5139 280.344L78.3508 280.425C78.1621 280.52 77.9769 280.618 77.8153 280.739C77.4706 280.998 77.1714 281.293 76.9254 281.621C76.8721 281.692 76.7942 281.747 76.6957 281.772C76.6023 281.796 76.4906 281.793 76.361 281.752C76.1934 281.7 76.0798 281.633 75.9678 281.508C75.8837 281.414 75.8408 281.318 75.8332 281.23C75.8254 281.139 75.855 281.055 75.9182 280.989Z" fill="black"/>
<path fill-rule="evenodd" clip-rule="evenodd" d="M60.5145 367.95C63.608 381.935 132.314 410.715 132.854 411.811C133.214 412.542 120.81 465.248 120.81 465.248L126.61 466.387C126.61 466.387 149.091 408.624 146.719 403.461C143.323 396.068 90.5258 361.864 90.5258 361.864L60.5145 367.95Z" fill="#B28B67"/>
<path fill-rule="evenodd" clip-rule="evenodd" d="M121.151 457.63L130.585 459.255C145.975 432.609 150.533 412.315 147.759 403.036C144.985 393.756 91.7463 361.49 91.7463 361.49L59.8805 368.118C65.8868 400.747 127.42 413.07 128.404 414.309C129.388 415.548 123.821 430.845 121.151 457.63Z" fill="#2F3676"/>
<path fill-rule="evenodd" clip-rule="evenodd" d="M121.081 464.728C120.084 464.095 118.727 464.358 118.177 465.444C117.682 466.421 117.179 467.541 117.048 468.282C116.77 469.85 116.718 472.943 116.718 472.943C118.396 473.232 146.878 478.137 146.878 478.137C146.878 478.137 148.801 474.124 146.328 473.352C143.854 472.58 142.227 472.02 142.227 472.02L129.803 463.11C129.341 462.779 128.698 462.923 128.398 463.425L127.322 465.23C127.322 465.23 124.767 466.013 123.301 465.76C122.667 465.651 121.829 465.202 121.081 464.728Z" fill="#E4E4E4"/>
<path fill-rule="evenodd" clip-rule="evenodd" d="M67.6953 366.457L50.5963 443.857L32.3172 510.089L38.7684 508.747L89.5633 361.908L67.6953 366.457Z" fill="#997659"/>
<path fill-rule="evenodd" clip-rule="evenodd" d="M33.9299 506.644C32.7669 506.424 31.5389 507.173 31.3606 508.387C31.201 509.473 31.0794 510.693 31.1892 511.426C31.4226 512.986 32.3551 515.876 32.3551 515.876C34.0421 515.525 62.6792 509.569 62.6792 509.569C62.6792 509.569 63.2339 505.134 60.6372 505.329C58.0405 505.525 56.3157 505.606 56.3157 505.606L41.6905 501.92C41.1398 501.782 40.5644 502.155 40.4388 502.734L39.9894 504.801C39.9894 504.801 37.8085 506.47 36.3345 506.777C35.7055 506.908 34.7821 506.805 33.9299 506.644Z" fill="#E4E4E4"/>
<path fill-rule="evenodd" clip-rule="evenodd" d="M32.9034 496.998L47.6697 496.899C56.1374 477.122 91.7968 395.833 91.8893 361.425L59.9769 368.062C46.6027 395.703 40.8092 477.039 32.9034 496.998Z" fill="#5C63AB"/>
<path fill-rule="evenodd" clip-rule="evenodd" d="M129.888 327.635L111.823 340.847L119.31 348.099L132.071 333.082C139.128 330.135 142.316 328.202 141.634 327.281C141.06 326.504 140.226 326.627 139.458 326.74C138.859 326.828 138.301 326.911 137.936 326.557C137.103 325.75 138.368 322.46 139.69 319.388C141.012 316.317 139.407 316.752 138.507 317.273C135.62 319.828 132.747 323.282 129.888 327.635ZM44.9596 359.768L33.6158 359.71C29.3225 382.37 26.6106 394.863 25.4801 397.187C24.651 398.892 18.7389 404.067 14.6554 407.024C13.0163 408.21 13.6342 409.731 14.2276 410.136C17.9708 412.686 20.8317 410.925 23.946 409.007C24.8476 408.452 25.7704 407.884 26.742 407.404C29.2568 406.16 30.2707 407.442 31.2289 408.653C32.0772 409.725 32.8819 410.742 34.6459 409.903C34.5047 409.534 34.3374 409.122 34.1569 408.678C32.9901 405.806 31.2694 401.571 32.4449 398.658C33.0482 397.164 37.2197 384.2 44.9596 359.768Z" fill="#D4A181"/>
<path fill-rule="evenodd" clip-rule="evenodd" d="M67.868 307.028L72.3787 305.209C84.0596 313.638 91.9718 338.078 99.2068 340.027C106.047 341.869 114.613 336.929 124.72 330.563L129.186 337.765C121.137 351.12 101.806 365.007 92.5714 361.293C77.8068 355.355 70.0271 324.801 67.868 307.028Z" fill="#FFA5A1"/>
<path fill-rule="evenodd" clip-rule="evenodd" d="M57.0271 373.86C57.0271 373.86 84.9268 368.06 98.0719 365.327C99.9475 364.937 99.1583 362.101 98.6672 360.69C93.0002 344.396 78.0497 328.67 74.4369 304.551L62.2989 305.017C55.0407 323.973 54.7746 345.509 57.0271 373.86Z" fill="#DDE3E9"/>
<path fill-rule="evenodd" clip-rule="evenodd" d="M63.672 304.732L61.5351 305.176C37.6132 328.277 25.6467 358.865 25.6355 396.941L34.51 396.963C39.1406 388.646 44.4252 375.51 50.3637 357.556C49.2596 367.857 48.8859 378.264 49.7203 387.859L86.667 380.178C90.9108 359.272 66.2228 304.202 66.2228 304.202L63.672 304.732Z" fill="#FFA5A1"/>
<path fill-rule="evenodd" clip-rule="evenodd" d="M181.214 117.235C178.959 114.459 176.43 112.594 174.976 112.45C171.33 112.09 166.612 124.099 167.454 129.816C168.295 135.533 180.802 142.443 184.916 133.22C186.344 130.019 186.023 126.581 184.842 123.442L194.721 107.746L184.034 103.856L181.214 117.235Z" fill="#D4A181"/>
<path fill-rule="evenodd" clip-rule="evenodd" d="M167.226 127.303C167.106 127.961 167.114 128.743 167.11 129.405C167.104 130.258 167.264 131.087 167.478 131.892C167.882 133.408 168.497 134.868 169.285 136.18C170.725 138.578 172.976 140.478 175.644 141.098C176.992 141.411 178.422 141.378 179.784 140.952C181.015 140.568 182.336 139.822 183.611 140.199C184.999 140.608 185.81 142.251 186.631 143.382C187.557 144.657 188.642 145.736 189.991 146.492C192.251 147.76 194.801 147.775 197.17 146.419C199.691 144.977 202.084 142.387 201.932 139.204C201.904 138.613 201.784 138.079 201.518 137.576C201.273 137.115 200.844 136.562 200.888 135.983C200.934 135.367 201.665 134.817 202.03 134.379C202.553 133.752 203.043 133.072 203.253 132.259C203.597 130.925 203.23 129.398 202.677 128.237C202.115 127.056 201.216 126.169 200.147 125.522C199.434 125.09 198.678 124.72 197.876 124.493C197.477 124.38 197.096 124.362 196.689 124.31C196.293 124.26 196.124 124.089 195.886 123.777C194.782 122.327 193.363 121.405 191.649 120.937C190.203 120.542 188.461 120.291 186.968 120.83C185.309 121.429 184.802 122.902 184.532 124.575C184.272 124.303 183.429 123.887 183.727 124.701C183.845 125.023 184.201 125.266 184.415 125.508C184.664 125.79 184.899 126.122 185.04 126.485C185.608 127.951 183.802 129.857 182.443 129.784C180.425 129.677 180.947 126.976 179.89 125.844C179.283 125.193 178.314 125.428 177.562 125.754C176.555 126.192 175.703 126.946 174.914 127.743C174.265 128.399 173.636 129.075 172.981 129.725C172.675 130.028 171.701 130.846 171.85 131.369C170.455 131.153 169.201 130.088 168.337 128.976C167.979 128.516 167.743 128.066 167.683 127.462C167.67 127.333 167.674 126.963 167.534 126.897C167.274 126.774 167.256 127.138 167.226 127.303Z" fill="#191847"/>
<path fill-rule="evenodd" clip-rule="evenodd" d="M171.761 117.055C172.145 117.214 172.487 117.479 172.737 117.818C172.824 117.935 172.847 118.06 172.828 118.173C172.808 118.301 172.733 118.417 172.632 118.495C172.53 118.573 172.402 118.611 172.279 118.592C172.172 118.575 172.066 118.515 171.981 118.392L171.964 118.367C171.815 118.163 171.621 117.995 171.4 117.887C171.188 117.782 170.95 117.734 170.703 117.762C170.234 117.816 169.911 118.074 169.567 118.424C169.525 118.468 169.482 118.514 169.439 118.56C169.412 118.602 169.375 118.629 169.333 118.643C169.287 118.659 169.234 118.658 169.186 118.641C169.14 118.625 169.099 118.594 169.071 118.552C169.045 118.513 169.03 118.464 169.035 118.408C169.066 118.046 169.253 117.722 169.518 117.467C169.812 117.185 170.203 116.99 170.57 116.921C170.975 116.846 171.388 116.9 171.761 117.055ZM170.379 122.652C169.948 122.386 169.292 121.766 169.755 121.106C170.301 120.524 171.086 121.191 171.473 121.493C171.832 121.727 172.235 121.125 171.902 120.853C169.106 118.748 167.971 122.583 170.161 122.965C170.402 123.007 170.492 122.735 170.379 122.652ZM175.391 125.1C175.343 125.7 174.443 125.837 174.354 125.242C174.274 124.71 174.368 124.221 174.604 123.742C174.829 123.285 175.396 123.498 175.439 123.915C175.496 124.474 175.42 124.726 175.391 125.1ZM168.541 125.366C168.416 125.533 168.235 125.647 168.018 125.582C167.34 125.381 167.54 124.403 167.778 123.927C167.907 123.668 168.325 123.602 168.514 123.83C168.822 124.201 168.97 124.943 168.578 125.308C168.568 125.327 168.556 125.346 168.541 125.366ZM174.613 127.727L174.506 127.746C174.175 127.804 173.763 127.86 173.529 127.589C173.404 127.446 173.362 127.179 173.529 127.042C173.823 126.8 174.147 126.894 174.5 126.873C174.79 126.856 175.069 126.807 175.348 126.726C175.962 126.548 176.461 126.223 176.985 125.866C177.054 125.819 177.124 125.908 177.091 125.974C176.789 126.575 176.203 127.07 175.616 127.371C175.303 127.532 174.96 127.666 174.613 127.727ZM169.16 127.996L169.078 127.979C168.186 127.79 167.027 127.411 166.604 126.521C166.588 126.395 166.605 126.368 166.619 126.351L166.624 126.345C166.635 126.33 166.644 126.309 166.698 126.292C166.713 126.295 166.728 126.299 166.743 126.303C166.936 126.355 167.09 126.426 167.238 126.5L167.399 126.58C167.585 126.673 167.774 126.763 167.973 126.829C168.399 126.97 168.837 127.069 169.281 127.122C169.378 127.134 169.47 127.167 169.544 127.223C169.613 127.277 169.666 127.352 169.69 127.451C169.722 127.579 169.713 127.676 169.645 127.791C169.594 127.878 169.522 127.938 169.438 127.973C169.353 128.008 169.256 128.016 169.16 127.996Z" fill="black"/>
<path fill-rule="evenodd" clip-rule="evenodd" d="M165.931 122.367C166.633 121.642 167.805 121.433 168.739 121.823C171.137 122.825 169.963 125.951 168.113 126.791C167.882 126.849 167.574 126.985 167.292 127.016C167.267 127.029 167.212 126.993 167.144 127.027C165.105 126.799 164.641 123.632 165.931 122.367ZM173.666 122.182C174.453 121.137 175.917 120.815 177.113 121.3C179.476 122.231 178.638 125.004 177.021 126.09C173.606 127.374 172.196 124.108 173.666 122.182ZM178.788 124.496C178.79 124.497 178.792 124.498 178.794 124.499C178.782 124.504 178.769 124.51 178.756 124.515C178.761 124.505 178.765 124.494 178.769 124.483C178.775 124.488 178.781 124.493 178.788 124.496ZM164.305 125.626C164.498 125.625 164.777 125.594 164.936 125.46C165.33 126.788 166.782 128.016 168.046 127.12C169.04 126.8 169.779 126.09 170.198 125.147C170.955 125.597 172.144 125.405 172.8 124.809C173.23 126.23 174.287 126.727 175.545 126.8C176.919 127.025 178.288 125.691 178.715 124.62C179.071 124.661 179.601 124.774 179.935 124.554C182.104 125.123 185.896 125.437 186.337 125.121C186.651 125 186.823 124.258 186.384 124.218C186.002 124.273 186.429 124.762 186.044 124.815C183.99 124.943 181.996 124.529 179.963 124.355C179.782 124.111 179.196 124.03 178.883 124.128C179.375 122.312 178.312 121.076 176.719 120.706C174.252 120.139 172.105 122.347 172.751 124.643C172.003 125.015 171.144 124.999 170.329 124.803C171.69 119.795 163.626 120.019 164.886 125.288C164.048 124.871 163.866 125.542 164.305 125.626Z" fill="black"/>
<path fill-rule="evenodd" clip-rule="evenodd" d="M207.368 71.9153L206.557 7.66093L206.73 -39.4171L198.19 -42.5254L183.071 63.0718L207.368 71.9153Z" fill="#1F28CF"/>
<path fill-rule="evenodd" clip-rule="evenodd" d="M212.65 73.8375C219.935 54.5435 229.263 28.3924 230.244 27.3814C231.225 26.3705 273.928 12.1085 273.928 12.1085L272.248 3.02977C272.248 3.02977 223.701 14.0484 220.462 16.6917C217.223 19.335 195.818 46.7163 183.815 63.3425L212.65 73.8375Z" fill="#2B44FF"/>
<path fill-rule="evenodd" clip-rule="evenodd" d="M283.504 9.89587L274.012 12.8419L270.612 3.51736C272.859 -4.8098 271.851 -16.544 271.851 -16.544L273.628 -17.1897L279.78 -0.316713L280.996 5.77848L281.885 5.45562L283.504 9.89587Z" fill="#191847"/>
<path fill-rule="evenodd" clip-rule="evenodd" d="M250.371 69.6872C247.767 71.4296 227.998 93.1574 227.998 93.1574L220.697 88.8965C220.697 88.8965 244.147 66.8165 245.681 65.6153C247.675 64.0549 247.988 60.2962 248.2 57.7474C248.233 57.3531 248.264 56.9878 248.298 56.664C249.946 56.8336 250.166 57.9063 250.398 59.0373C250.659 60.3146 250.936 61.6662 253.304 61.8747C254.219 61.9552 255.131 61.9522 256.022 61.9492C259.098 61.9388 261.924 61.9293 263.775 65.3689C264.069 65.9142 263.956 67.2641 262.269 67.3958C258.068 67.7239 251.644 68.8354 250.371 69.6872ZM155.152 49.9485L165.52 65.5064L171.469 58.9009L159.569 47.9804C157.301 41.8755 155.792 39.1252 155.04 39.7296C154.407 40.2391 154.493 40.9635 154.573 41.6307C154.635 42.1504 154.693 42.6355 154.403 42.9573C153.741 43.6923 151.111 42.6325 148.658 41.5199C146.205 40.4073 146.531 41.7991 146.938 42.5756C148.952 45.0566 151.69 47.5142 155.152 49.9485Z" fill="#B28B67"/>
<path fill-rule="evenodd" clip-rule="evenodd" d="M177.654 111.737L183.109 111.515C183.511 110.256 184.159 108.492 184.901 106.471C187.229 100.128 190.487 91.2547 189.996 87.5059C188.296 74.5186 178.713 64.5879 168.04 53.5274C166.609 52.0449 165.159 50.542 163.706 49.0088L157.478 55.0086C157.785 55.4526 158.087 55.897 158.385 56.3417C157.753 56.3344 157.123 56.6087 156.698 57.1419C155.965 58.0602 156.114 59.3989 157.031 60.1319C158.894 61.6214 160.764 62.6445 162.633 63.1765C171.85 79.2393 176.022 95.6353 177.654 111.737Z" fill="#69A1AC"/>
<path fill-rule="evenodd" clip-rule="evenodd" d="M217.165 69.8243C217.165 69.8243 197.075 59.9055 184.221 57.8337C183.159 57.6626 181.643 61.9625 181.678 63.3001C182.214 84.1293 182.074 99.1835 177.468 111.839C179.816 111.525 184.486 114.043 184.486 114.043C198.07 104.218 207.578 90.7321 217.165 69.8243Z" fill="#191847"/>
<path fill-rule="evenodd" clip-rule="evenodd" d="M243.786 79.2641C218.609 110.068 187.659 116.405 187.659 116.405L186.968 116.154L185.262 115.532L182.612 114.568C185.939 107.206 187.262 95.2134 188.797 81.3009C191.252 59.0507 194.249 31.8908 206.849 10.9145C212.679 11.6712 218.714 14.8 225.248 18.1872C234.678 23.0757 245.146 28.5023 257.533 28.1131C253.825 37.0035 244.909 45.0939 236.034 53.1477C230.408 58.2527 224.798 63.3431 220.541 68.6133C220.853 69.2317 220.856 69.99 220.485 70.6345L219.773 71.8675C219.293 72.6991 218.336 73.0835 217.448 72.8744C217.056 73.4868 216.687 74.1022 216.341 74.7209C214.577 77.8823 213.715 81.3274 212.862 84.7337L212.862 84.7338C212.394 86.6039 211.929 88.4625 211.319 90.256C219.192 87.1176 229.751 80.4928 241.654 66.6803L249.136 72.2003C248.382 73.2758 247.619 74.3262 246.85 75.352C247.625 76.2405 247.843 79.1989 246.872 79.3254C245.846 79.459 244.816 79.4372 243.786 79.2641Z" fill="#89C5CC"/>
<path fill-rule="evenodd" clip-rule="evenodd" d="M185.988 115.293L190.843 109.077L188.156 102.114L193.834 99.4778L190.044 78.5264L196.094 100.261L190.477 102.959L192.87 109.119L185.988 115.293Z" fill="black" fill-opacity="0.1"/>
<path fill-rule="evenodd" clip-rule="evenodd" d="M195.427 72.9374C194.446 72.5805 193.362 73.087 193.005 74.0686C192.647 75.0502 193.152 76.1353 194.133 76.4921C195.113 76.8489 196.197 76.3424 196.555 75.3608C196.912 74.3792 196.407 73.2942 195.427 72.9374ZM196.927 61.91C195.947 61.5531 194.863 62.0596 194.505 63.0412C194.148 64.0228 194.653 65.1079 195.634 65.4647C196.614 65.8215 197.698 65.315 198.056 64.3334C198.413 63.3518 197.908 62.2668 196.927 61.91ZM197.781 52.6599C198.139 51.6783 199.223 51.1718 200.203 51.5286C201.184 51.8854 201.689 52.9705 201.332 53.9521C200.974 54.9337 199.89 55.4402 198.91 55.0833C197.929 54.7265 197.424 53.6415 197.781 52.6599Z" fill="black" fill-opacity="0.4"/>
<path fill-rule="evenodd" clip-rule="evenodd" d="M235.08 392.456C232.805 396.937 229.882 400.241 227.927 400.859C223.026 402.409 212.988 387.209 212.45 379.079C211.912 370.95 227.048 357.803 235.432 369.336C238.341 373.339 238.918 378.174 238.225 382.846L256.447 401.642L242.917 410.096L235.08 392.456Z" fill="#D4A181"/>
<path fill-rule="evenodd" clip-rule="evenodd" d="M238.821 361.635C238.987 360.929 238.84 360.162 238.679 359.447C238.512 358.703 238.335 357.957 238.081 357.234C237.573 355.789 236.665 354.329 235.145 353.91C233.926 353.574 232.617 353.9 231.564 354.45C230.863 354.817 230.234 355.341 229.724 355.952C229.218 356.559 228.93 357.319 228.475 357.963C227.597 356.612 226.47 355.329 225.048 354.595C223.68 353.89 222.222 353.924 220.907 354.515C219.557 355.12 218.511 356.178 217.774 357.476C217.59 357.8 217.413 358.131 217.26 358.474C217.132 358.762 217.015 359.086 216.794 359.309C216.547 359.558 216.299 359.48 215.979 359.387C215.604 359.277 215.219 359.214 214.836 359.186C213.14 359.058 211.395 359.659 210.369 361.013C209.896 361.636 209.543 362.414 209.467 363.229C209.399 363.955 209.619 364.903 209.316 365.57C209.187 365.853 208.911 365.757 208.622 365.739C208.188 365.713 207.754 365.656 207.319 365.637C206.709 365.612 206.11 365.682 205.543 365.877C204.713 366.162 203.735 366.828 204.121 367.907C204.266 368.312 204.564 368.656 204.814 369C205.157 369.472 205.501 369.943 205.852 370.409C206.118 370.763 206.385 371.098 206.686 371.422C206.846 371.594 207.192 371.886 207.23 372.134C207.278 372.445 206.707 372.608 206.505 372.746C206.107 373.018 205.741 373.347 205.472 373.757C205.264 374.076 205.081 374.467 205.167 374.88C205.22 375.134 205.372 375.334 205.54 375.523C205.743 375.751 205.778 375.917 205.906 376.194C205.188 376.267 202.91 376.855 203.286 377.988C203.411 378.366 203.823 378.623 204.134 378.812C204.68 379.145 205.275 379.389 205.865 379.608C207.094 380.065 208.38 380.318 209.658 380.423C208.92 381.516 209.491 383.023 210.874 383.268C211.485 383.376 212.06 383.127 212.538 382.796C212.713 382.675 212.93 382.443 213.092 382.386C213.179 382.355 213.301 382.369 213.411 382.31C214.136 381.923 214.817 381.265 215.4 380.686C216.44 379.654 217.228 378.364 217.618 376.905C217.718 376.53 217.836 376.277 218.162 376.079C218.447 375.904 218.773 375.808 219.061 375.639C219.822 375.19 220.268 374.402 220.812 373.723C221.441 374.636 222.356 375.504 223.268 376.109C224.012 376.602 224.729 376.293 225.41 375.952C227.588 374.86 229.517 373.354 231.578 372.07C229.866 373.767 227.922 375.24 226.278 377.004C225.534 377.802 226.592 377.978 227.235 378.156C228.293 378.451 229.293 379.01 230.177 379.704C230.358 377.823 231.559 375.909 233.33 375.345C235.287 374.722 237.901 376.261 237.846 378.576C237.815 379.919 236.914 380.994 236.228 381.991C237.439 382.296 238.321 383.312 239.357 383.985C239.867 384.318 240.504 384.656 241.094 384.514C241.312 384.462 241.526 384.335 241.76 384.393C242.05 384.465 242.22 384.642 242.542 384.658C243.831 384.721 245.204 383.797 245.491 382.484C245.75 381.298 244.834 380.249 243.766 379.877C244.474 378.88 245.897 377.278 244.585 376.024C246.573 374.591 249.507 368.081 245.188 367.363C246.176 365.545 246.261 362.559 244.118 361.312C242.467 360.352 240.31 360.81 238.821 361.635Z" fill="#191847"/>
<path fill-rule="evenodd" clip-rule="evenodd" d="M310.262 517.372C310.262 517.372 286.34 524.059 268.983 524.059C251.627 524.059 236.74 513.761 236.74 513.761C236.74 513.761 260.15 506.896 275.299 506.896C290.447 506.896 310.262 517.372 310.262 517.372Z" fill="#6F7DE2"/>
<path fill-rule="evenodd" clip-rule="evenodd" d="M255.177 530.485C255.331 530.254 255.461 530.003 255.564 529.731C257.696 524.096 291.841 463.311 295.243 452.197H256.8C254.214 460.647 242.573 513.672 240.934 524.251C235.765 540.939 225.123 594.984 223.764 598.728C222.335 602.666 230.377 606.77 232.52 601.927C235.93 594.223 244.054 572.904 247.672 559.887C251.063 547.684 253.825 536.705 255.177 530.485Z" fill="#D4A181"/>
<path fill-rule="evenodd" clip-rule="evenodd" d="M286.629 537.907C302.239 541.85 359.34 548.979 363.258 550.097C367.289 551.247 370.823 542.943 365.841 541.145C357.913 538.282 336.068 531.669 322.824 528.97C312.171 526.799 302.45 525.028 295.923 523.991C296.476 505.668 299.003 461.695 297.347 452.197H263.332C264.921 461.305 278.35 527.757 280.846 534.408C281.638 536.783 284.002 537.832 286.629 537.907Z" fill="#D4A181"/>
<path fill-rule="evenodd" clip-rule="evenodd" d="M297.237 452.197C297.237 452.197 274.753 445.768 254.69 452.197C250.036 473.418 238.729 481.841 236.74 514.376C259.344 525.601 287.265 506.37 310.533 517.317C317.181 502.005 307.874 465.131 297.237 452.197Z" fill="#AAB4FF"/>
<path fill-rule="evenodd" clip-rule="evenodd" d="M211.61 490.163L222.589 466.301L232.291 474.151L218.17 491.92C216.361 500.887 214.869 505.034 213.694 504.361C212.703 503.794 212.664 502.77 212.629 501.827C212.601 501.093 212.575 500.407 212.103 500.025C211.023 499.151 207.605 501.201 204.445 503.285C201.285 505.368 201.433 503.366 201.827 502.199C204.078 498.315 207.339 494.303 211.61 490.163ZM324.622 475.329C321.392 472.342 301.425 438.809 301.425 438.809L288.496 443.831C288.496 443.831 315.351 477.945 317.217 479.947C319.64 482.548 319.247 487.829 318.98 491.41C318.939 491.964 318.901 492.477 318.877 492.934C321.202 493.06 321.743 491.621 322.314 490.103C322.958 488.389 323.64 486.576 326.973 486.806C328.26 486.895 329.525 487.099 330.76 487.298C335.027 487.987 338.947 488.62 342.273 484.256C342.801 483.565 342.942 481.668 340.63 481.115C334.871 479.739 326.201 476.789 324.622 475.329Z" fill="#D4A181"/>
<path fill-rule="evenodd" clip-rule="evenodd" d="M243.769 398.596L238.058 399.734C237.68 426.321 229.613 453.443 213.857 481.101L239.327 495.538C252.016 459.898 255.562 426.791 243.769 398.596Z" fill="#191847"/>
<path fill-rule="evenodd" clip-rule="evenodd" d="M292.975 456.97L245.264 475.284C245.264 475.284 246.368 428.602 235.55 400.421L249.119 392.751C267.413 406.602 279.205 427.775 292.975 456.97Z" fill="#DDE3E9"/>
<path fill-rule="evenodd" clip-rule="evenodd" d="M249.427 392.645L249.435 392.63C249.435 392.63 294.695 412.225 322.511 469.094L299.257 478.021C298.45 475.355 297.585 472.749 296.668 470.203L265.439 482.191C265.439 482.191 250.185 424.842 243.76 406.452L243.422 395.178C243.422 395.178 246.814 393.703 248.478 392.997L249.418 392.637C249.421 392.639 249.424 392.642 249.427 392.645Z" fill="#2F3676"/>
<path fill-rule="evenodd" clip-rule="evenodd" d="M296.757 470.449C292.784 459.354 287.844 449.401 282.628 440.679C286.034 452.096 289.377 466.124 288.056 473.789L296.757 470.449Z" fill="black" fill-opacity="0.1"/>
<path fill-rule="evenodd" clip-rule="evenodd" d="M282.472 453.891L264.298 452.641L267.05 459.811L282.472 453.891Z" fill="white" fill-opacity="0.2"/>
<path fill-rule="evenodd" clip-rule="evenodd" d="M222.479 395.305C223.214 395.303 223.947 395.108 224.579 394.703C225.152 394.337 225.678 393.744 225.983 393.074C226.254 392.479 226.351 391.824 226.161 391.21C226.139 391.14 226.096 391.089 226.044 391.054C225.988 391.017 225.92 391.001 225.853 391.004C225.785 391.008 225.718 391.033 225.668 391.076C225.623 391.115 225.59 391.169 225.579 391.236C225.535 391.35 225.491 391.462 225.446 391.572C225.081 392.442 224.683 393.128 223.88 393.567C223.445 393.805 222.967 393.896 222.495 393.864C221.99 393.83 221.492 393.657 221.059 393.375C220.863 393.248 220.671 393.229 220.502 393.277C220.31 393.332 220.147 393.476 220.046 393.659C219.947 393.839 219.909 394.056 219.958 394.257C220.001 394.433 220.111 394.598 220.309 394.715C220.963 395.104 221.722 395.307 222.479 395.305Z" fill="#231F20"/>
<path fill-rule="evenodd" clip-rule="evenodd" d="M219.927 386.491C219.356 387.116 218.584 388.409 219.637 389.237C220.787 389.903 221.745 388.475 222.23 387.814C222.701 387.274 223.63 388.038 223.219 388.628C219.681 393.283 216.073 387.736 219.431 386.097C219.801 385.917 220.071 386.307 219.927 386.491Z" fill="#231F20"/>
<path fill-rule="evenodd" clip-rule="evenodd" d="M225.888 382.735C226.07 382.527 226.318 382.401 226.648 382.449C226.906 382.485 227.406 382.714 227.816 383.085C228.097 383.34 228.338 383.664 228.42 384.051C228.439 384.141 228.491 384.196 228.556 384.229C228.608 384.255 228.674 384.266 228.746 384.255C228.806 384.245 228.87 384.219 228.918 384.187C229.01 384.126 229.044 384.045 229.049 383.986C229.093 383.413 228.841 382.862 228.471 382.406C227.972 381.791 227.266 381.359 226.861 381.272C226.167 381.123 225.456 381.314 224.952 381.82C224.524 382.25 224.337 382.797 224.155 383.352C224.116 383.47 224.077 383.587 224.036 383.703C223.953 383.936 223.995 384.131 224.097 384.278C224.209 384.442 224.405 384.55 224.619 384.575C224.816 384.598 225.022 384.549 225.18 384.42C225.314 384.311 225.417 384.146 225.444 383.908C225.488 383.507 225.621 383.04 225.888 382.735Z" fill="#231F20"/>
<path fill-rule="evenodd" clip-rule="evenodd" d="M214.773 386.843C214.949 386.878 215.076 386.867 215.231 386.767C215.316 386.711 215.393 386.63 215.445 386.536C215.496 386.444 215.522 386.339 215.513 386.234C215.491 385.975 215.558 385.706 215.706 385.501C215.832 385.326 216.018 385.198 216.258 385.169C216.517 385.138 216.798 385.228 217.014 385.367C217.087 385.413 217.15 385.472 217.213 385.53C217.331 385.638 217.444 385.738 217.583 385.802C217.635 385.827 217.705 385.834 217.766 385.816C217.791 385.809 217.815 385.797 217.837 385.783C218.01 385.465 218.003 385.265 217.941 385.082C217.876 384.89 217.742 384.715 217.564 384.568C217.148 384.222 216.493 384.031 216.097 384.059C215.555 384.099 215.087 384.378 214.764 384.781C214.432 385.196 214.255 385.741 214.308 386.282C214.321 386.412 214.369 386.542 214.45 386.644C214.529 386.743 214.637 386.816 214.773 386.843Z" fill="#231F20"/>
<path fill-rule="evenodd" clip-rule="evenodd" d="M222.999 380.63C223.437 380.549 223.694 380.269 223.949 379.981C224.091 379.822 224.204 379.695 224.331 379.58C224.68 379.266 225.068 378.986 225.49 378.778C225.93 378.56 226.432 378.339 226.923 378.271C227.04 378.255 227.157 378.245 227.275 378.236C227.383 378.227 227.486 378.218 227.589 378.205C227.708 378.19 227.827 378.18 227.947 378.171C228.037 378.177 228.058 378.181 228.08 378.184C228.113 378.19 228.149 378.196 228.19 378.201C228.245 378.208 228.306 378.214 228.365 378.216C228.468 378.224 228.504 378.215 228.528 378.201C228.566 378.178 228.596 378.152 228.613 378.118C228.63 378.087 228.635 378.05 228.632 378.007C228.613 377.794 228.456 377.624 228.257 377.489C227.954 377.284 227.546 377.161 227.271 377.119C226.633 377.022 225.911 377.003 225.281 377.148C224.562 377.313 223.91 377.589 223.301 378.006C222.923 378.265 222.517 378.586 222.262 378.979C222.078 379.262 221.974 379.582 222.025 379.943C222.056 380.165 222.189 380.355 222.367 380.481C222.549 380.609 222.778 380.671 222.999 380.63Z" fill="#231F20"/>
<path fill-rule="evenodd" clip-rule="evenodd" d="M211.939 382.68C211.945 382.718 211.962 382.75 211.986 382.775C212.011 382.8 212.043 382.818 212.077 382.826C212.112 382.834 212.149 382.832 212.182 382.82C212.214 382.808 212.244 382.787 212.266 382.756C212.817 381.978 213.461 381.497 214.442 381.421C214.925 381.383 215.436 381.444 215.913 381.521C216.052 381.544 216.193 381.58 216.335 381.616C216.781 381.728 217.234 381.833 217.649 381.607C217.899 381.471 218.077 381.238 218.136 380.983C218.193 380.742 218.146 380.481 217.958 380.258C217.489 379.703 216.622 379.698 215.913 379.707C215.861 379.707 215.809 379.708 215.759 379.708C215.067 379.713 214.394 379.818 213.758 380.104C213.254 380.331 212.701 380.747 212.336 381.259C212.033 381.684 211.86 382.175 211.939 382.68Z" fill="#231F20"/>
<path d="M99.3258 239.616C99.0698 242.304 98.6218 245.152 97.6938 247.04C98.4618 247.328 99.8378 247.936 100.478 248.384C101.374 246.336 102.078 243.168 102.366 240.128L99.3258 239.616ZM106.366 240.288C107.038 242.048 107.646 244.352 107.774 245.856L110.59 244.96C110.398 243.456 109.758 241.216 109.022 239.488L106.366 240.288ZM114.654 231.392H123.23V233.088H114.654V231.392ZM114.654 227.008H123.23V228.64H114.654V227.008ZM125.118 236.768C124.382 237.728 123.294 238.912 122.206 239.936C121.598 238.752 121.15 237.504 120.798 236.288V236H126.814V224.064H120.222C120.702 223.264 121.182 222.368 121.63 221.472L117.342 220.864C117.086 221.824 116.67 223.008 116.222 224.064H111.23V236H117.406V238.816L115.486 238.048L114.91 238.144H110.654L111.006 237.984C110.622 236.192 109.406 233.376 108.158 231.2L105.47 232.32C105.822 232.96 106.174 233.664 106.494 234.368L103.71 234.528C105.726 231.968 107.902 228.8 109.662 226.112L106.558 224.672C105.822 226.24 104.798 228.064 103.678 229.856C103.39 229.472 103.038 229.024 102.654 228.608C103.838 226.816 105.15 224.288 106.27 222.08L102.974 220.928C102.462 222.56 101.566 224.704 100.67 226.464C100.414 226.24 100.158 226.016 99.9338 225.792L98.0778 228.352C99.3578 229.664 100.83 231.392 101.726 232.832C101.246 233.504 100.766 234.144 100.286 234.72L97.9818 234.848L98.3658 238.144L102.814 237.792V250.784H106.078V237.536L107.678 237.408C107.87 238.112 108.062 238.752 108.158 239.296L110.398 238.272V241.248H113.502C112.446 243.808 110.718 245.76 108.542 246.944C109.246 247.456 110.43 248.768 110.91 249.472C113.886 247.648 116.222 244.288 117.406 239.424V247.104C117.406 247.456 117.31 247.552 116.894 247.552C116.542 247.552 115.358 247.552 114.27 247.52C114.686 248.448 115.038 249.792 115.166 250.752C117.118 250.752 118.494 250.72 119.518 250.176C120.542 249.664 120.798 248.768 120.798 247.136V243.488C122.078 245.856 123.902 248.064 126.398 249.472C126.878 248.544 127.966 247.072 128.638 246.4C126.622 245.504 125.054 244.128 123.806 242.56C125.182 241.568 126.718 240.256 128.19 239.04L125.118 236.768ZM145.418 245.376V234.304H156.714V230.432H145.418V221.28H141.322V245.376H129.866V249.216H158.954V245.376H145.418ZM184.726 230.24C184.374 233.024 183.83 235.52 183.03 237.696C182.166 235.392 181.526 232.896 181.078 230.24H184.726ZM172.502 234.016H170.646C171.126 233.504 171.574 232.96 172.022 232.416H175.83C175.35 233.28 174.838 234.048 174.294 234.72L173.174 233.824L172.502 234.016ZM169.046 227.008H171.542C171.094 227.744 170.614 228.448 170.102 229.152H169.046V227.008ZM190.55 230.24V226.72H182.038C182.486 225.024 182.838 223.264 183.158 221.472L179.318 220.896C178.742 224.672 177.782 228.352 176.374 231.328V229.152H174.358C175.638 227.136 176.758 224.992 177.686 222.656L174.166 221.664C173.59 223.168 172.918 224.64 172.15 225.984V223.808H169.046V220.896H165.494V223.808H161.878V227.008H165.494V229.152H160.822V232.416H167.254C166.678 232.96 166.102 233.504 165.494 234.016H163.446V235.552C162.39 236.256 161.27 236.928 160.086 237.504C160.854 238.208 162.134 239.68 162.646 240.416C164.406 239.424 166.038 238.272 167.606 236.96H169.878C169.334 237.536 168.758 238.08 168.214 238.56H166.966V241.056C164.566 241.248 162.358 241.408 160.566 241.536L160.95 244.928C162.71 244.768 164.758 244.576 166.966 244.384V247.104C166.966 247.456 166.838 247.552 166.422 247.584C166.038 247.584 164.63 247.584 163.414 247.552C163.862 248.448 164.342 249.792 164.502 250.784C166.486 250.784 167.958 250.752 169.11 250.24C170.262 249.696 170.55 248.832 170.55 247.2V244.064C172.47 243.904 174.422 243.744 176.342 243.552V240.288C174.422 240.448 172.47 240.64 170.55 240.768V240.128C172.118 238.88 173.75 237.248 175.03 235.744C175.83 236.384 176.726 237.216 177.142 237.696C177.654 237.024 178.134 236.288 178.614 235.488C179.19 237.856 179.894 240.032 180.79 241.984C179.126 244.32 176.918 246.112 173.91 247.456C174.614 248.256 175.734 250.016 176.086 250.912C178.87 249.504 181.078 247.776 182.838 245.664C184.278 247.776 186.038 249.504 188.246 250.816C188.822 249.76 190.006 248.256 190.87 247.488C188.502 246.272 186.646 244.416 185.206 242.144C186.902 238.88 187.99 234.976 188.662 230.24H190.55ZM210.306 224.8C209.922 224.448 209.378 224.032 208.77 223.584C209.378 223.04 209.922 222.432 210.37 221.824L207.906 221.088C207.586 221.504 207.202 221.92 206.786 222.304C206.146 221.92 205.506 221.568 204.93 221.28L203.17 222.752C203.714 223.04 204.29 223.36 204.866 223.712C204.066 224.224 203.234 224.64 202.37 224.992C202.978 225.408 203.97 226.272 204.386 226.72C205.218 226.272 206.082 225.728 206.946 225.12C207.554 225.6 208.066 226.048 208.45 226.432L210.306 224.8ZM212.962 236.288L212.162 236.48H198.562V239.136H208.866C208.226 239.616 207.522 240.064 206.85 240.448H204.962V241.92H192.898V244.896H204.962V247.104C204.962 247.52 204.802 247.616 204.29 247.648C203.778 247.648 201.89 247.648 200.322 247.584C200.802 248.48 201.346 249.792 201.538 250.784C203.938 250.784 205.698 250.784 206.978 250.272C208.322 249.792 208.674 248.992 208.674 247.232V244.896H220.77V241.92H209.538C211.49 240.8 213.474 239.488 215.074 238.208L212.962 236.288ZM218.402 232.352C218.722 229.376 218.978 225.312 219.138 221.92H211.074V224.32H215.426L215.362 225.408H211.202V227.776H215.202L215.138 228.864H211.106V231.232H214.914L214.818 232.352H198.85L198.786 231.232H202.786V230.944C203.362 231.36 204.034 231.968 204.386 232.32C205.25 231.84 206.178 231.264 207.074 230.592C207.746 231.104 208.322 231.584 208.706 232L210.626 230.4C210.178 229.984 209.57 229.504 208.898 229.024C209.538 228.448 210.082 227.808 210.53 227.168L208.066 226.432C207.746 226.88 207.33 227.328 206.882 227.744C206.242 227.36 205.602 227.008 205.026 226.72L203.266 228.16C203.81 228.48 204.418 228.832 204.994 229.184C204.29 229.632 203.554 230.048 202.786 230.432V228.864H198.658L198.594 227.776H202.69V225.408H198.466L198.434 224.672C199.906 224.288 201.602 223.744 202.946 223.104L201.186 221.056C200.066 221.536 198.338 222.24 196.834 222.72L194.754 222.304L195.362 232.352H192.898V238.912H196.514V235.104H217.058V238.912H220.834V232.352H218.402ZM127.572 281.856V279.488H131.412V280.608C131.412 280.992 131.412 281.44 131.38 281.856H127.572ZM127.572 274.56H131.412V276.896H127.572V274.56ZM138.74 274.56V276.896H135.188V274.56H138.74ZM138.74 281.856H135.156C135.188 281.44 135.188 281.024 135.188 280.64V279.488H138.74V281.856ZM142.42 284.64V271.776H135.188V269.856H143.22V266.528H123.796L123.956 266.112L120.372 264.992C118.9 269.536 116.34 274.08 113.652 276.992C114.292 277.952 115.38 280 115.732 280.928C116.276 280.32 116.82 279.648 117.364 278.88V294.72H121.012V272.96C122.004 271.008 122.9 268.992 123.636 267.008V269.856H131.412V271.776H124.052V284.64H131.028C130.74 285.76 130.292 286.784 129.492 287.744C128.18 286.976 127.092 286.112 126.228 285.056L122.932 286.208C123.988 287.648 125.3 288.896 126.74 289.92C125.428 290.656 123.7 291.232 121.556 291.68C122.292 292.448 123.412 293.952 123.86 294.816C126.484 294.016 128.564 293.024 130.132 291.872C133.396 293.312 137.3 294.176 141.94 294.56C142.42 293.504 143.412 291.872 144.244 291.008C139.86 290.784 135.988 290.208 132.852 289.184C133.812 287.776 134.452 286.24 134.804 284.64H142.42ZM155.264 277.856H160.768V274.368H155.264V269.6C157.216 269.12 159.072 268.576 160.672 267.936L157.984 264.992C154.88 266.4 149.728 267.616 145.12 268.288C145.568 269.088 146.048 270.432 146.208 271.264C147.936 271.04 149.76 270.752 151.584 270.4V274.368H145.504V277.856H150.848C149.408 281.184 147.072 284.832 144.768 287.072C145.376 288.032 146.304 289.664 146.688 290.784C148.448 288.928 150.144 286.176 151.584 283.264V294.72H155.264V283.68C156.544 284.992 157.888 286.432 158.656 287.424L160.864 284.16C160 283.488 156.832 280.768 155.264 279.584V277.856ZM165.984 268.768H162.272V286.656H165.984V268.768ZM169.824 265.504V290.112C169.824 290.688 169.568 290.88 168.96 290.912C168.288 290.912 166.24 290.912 164.16 290.816C164.736 291.904 165.312 293.664 165.472 294.752C168.384 294.784 170.528 294.656 171.84 294.016C173.152 293.408 173.6 292.352 173.6 290.144V265.504H169.824ZM188.588 290.976C185.228 290.976 184.652 290.752 184.652 289.408V284.992H195.084V274.432H182.924C183.5 273.664 184.044 272.832 184.588 272H200.076C199.852 279.424 199.564 282.208 199.052 282.912C198.796 283.296 198.476 283.392 197.996 283.392C197.42 283.392 196.3 283.392 195.116 283.264C195.692 284.224 196.076 285.792 196.108 286.88C197.708 286.912 199.148 286.912 200.044 286.752C201.068 286.592 201.772 286.24 202.444 285.28C203.372 284.032 203.66 280.192 203.948 270.048C203.98 269.536 204.012 268.416 204.012 268.416H186.604C187.02 267.584 187.404 266.72 187.756 265.856L183.692 264.736C182.092 269.024 179.18 273.28 175.916 275.84C176.908 276.448 178.572 277.792 179.308 278.56C180.236 277.696 181.132 276.704 182.028 275.616V277.76H191.34V281.632H180.876V289.472C180.876 293.472 182.604 294.528 188.556 294.528H198.796C203.852 294.528 205.164 293.344 205.772 288.448C204.716 288.288 203.02 287.68 202.156 287.136C201.804 290.432 201.388 290.976 198.636 290.976H188.588Z" fill="#2F1136"/>
</g>
<defs>
<clipPath id="clip0">
<rect width="320" height="519" fill="white"/>
</clipPath>
</defs>
</svg>
