<svg width="768" height="400" viewBox="0 0 768 400" fill="none" xmlns="http://www.w3.org/2000/svg">
<g clip-path="url(#clip0)">
<rect width="768" height="400" fill="white"/>
<path fill-rule="evenodd" clip-rule="evenodd" d="M191.5 86.6735C214.972 86.6735 234 76.5999 234 64.1735C234 51.7471 214.972 41.6735 191.5 41.6735C168.028 41.6735 149 51.7471 149 64.1735C149 76.5999 168.028 86.6735 191.5 86.6735Z" fill="#F2F2F2"/>
<path fill-rule="evenodd" clip-rule="evenodd" d="M241 79.6735C241 52.0592 218.838 29.6735 191.5 29.6735C164.162 29.6735 142 52.0592 142 79.6735" fill="#DDE3E9"/>
<rect x="189" y="-123" width="5" height="160" fill="#DDE3E9"/>
<g opacity="0.7">
<path fill-rule="evenodd" clip-rule="evenodd" d="M93 53C110.545 53 124.768 44.8704 124.768 34.8421C124.768 24.8138 110.545 16.6842 93 16.6842C75.4552 16.6842 61.2323 24.8138 61.2323 34.8421C61.2323 44.8704 75.4552 53 93 53Z" fill="#F2F2F2"/>
<path fill-rule="evenodd" clip-rule="evenodd" d="M130 47.3509C130 25.0657 113.435 7 93 7C72.5655 7 56 25.0657 56 47.3509" fill="#DDE3E9"/>
<rect x="91" y="-106" width="5" height="136" fill="#DDE3E9"/>
</g>
<path d="M175.92 205.184C175.376 210.896 174.424 216.948 172.452 220.96C174.084 221.572 177.008 222.864 178.368 223.816C180.272 219.464 181.768 212.732 182.38 206.272L175.92 205.184ZM190.88 206.612C192.308 210.352 193.6 215.248 193.872 218.444L199.856 216.54C199.448 213.344 198.088 208.584 196.524 204.912L190.88 206.612ZM208.492 187.708H226.716V191.312H208.492V187.708ZM208.492 178.392H226.716V181.86H208.492V178.392ZM230.728 199.132C229.164 201.172 226.852 203.688 224.54 205.864C223.248 203.348 222.296 200.696 221.548 198.112V197.5H234.332V172.136H220.324C221.344 170.436 222.364 168.532 223.316 166.628L214.204 165.336C213.66 167.376 212.776 169.892 211.824 172.136H201.216V197.5H214.34V203.484L210.26 201.852L209.036 202.056H199.992L200.74 201.716C199.924 197.908 197.34 191.924 194.688 187.3L188.976 189.68C189.724 191.04 190.472 192.536 191.152 194.032L185.236 194.372C189.52 188.932 194.144 182.2 197.884 176.488L191.288 173.428C189.724 176.76 187.548 180.636 185.168 184.444C184.556 183.628 183.808 182.676 182.992 181.792C185.508 177.984 188.296 172.612 190.676 167.92L183.672 165.472C182.584 168.94 180.68 173.496 178.776 177.236C178.232 176.76 177.688 176.284 177.212 175.808L173.268 181.248C175.988 184.036 179.116 187.708 181.02 190.768C180 192.196 178.98 193.556 177.96 194.78L173.064 195.052L173.88 202.056L183.332 201.308V228.916H190.268V200.764L193.668 200.492C194.076 201.988 194.484 203.348 194.688 204.504L199.448 202.328V208.652H206.044C203.8 214.092 200.128 218.24 195.504 220.756C197 221.844 199.516 224.632 200.536 226.128C206.86 222.252 211.824 215.112 214.34 204.776V221.096C214.34 221.844 214.136 222.048 213.252 222.048C212.504 222.048 209.988 222.048 207.676 221.98C208.56 223.952 209.308 226.808 209.58 228.848C213.728 228.848 216.652 228.78 218.828 227.624C221.004 226.536 221.548 224.632 221.548 221.164V213.412C224.268 218.444 228.144 223.136 233.448 226.128C234.468 224.156 236.78 221.028 238.208 219.6C233.924 217.696 230.592 214.772 227.94 211.44C230.864 209.332 234.128 206.544 237.256 203.96L230.728 199.132ZM274.752 217.424V193.896H298.756V185.668H274.752V166.22H266.048V217.424H241.704V225.584H303.516V217.424H274.752ZM359.168 185.26C358.42 191.176 357.264 196.48 355.564 201.104C353.728 196.208 352.368 190.904 351.416 185.26H359.168ZM333.192 193.284H329.248C330.268 192.196 331.22 191.04 332.172 189.884H340.264C339.244 191.72 338.156 193.352 337 194.78L334.62 192.876L333.192 193.284ZM325.848 178.392H331.152C330.2 179.956 329.18 181.452 328.092 182.948H325.848V178.392ZM371.544 185.26V177.78H353.456C354.408 174.176 355.156 170.436 355.836 166.628L347.676 165.404C346.452 173.428 344.412 181.248 341.42 187.572V182.948H337.136C339.856 178.664 342.236 174.108 344.208 169.144L336.728 167.036C335.504 170.232 334.076 173.36 332.444 176.216V171.592H325.848V165.404H318.3V171.592H310.616V178.392H318.3V182.948H308.372V189.884H322.04C320.816 191.04 319.592 192.196 318.3 193.284H313.948V196.548C311.704 198.044 309.324 199.472 306.808 200.696C308.44 202.192 311.16 205.32 312.248 206.884C315.988 204.776 319.456 202.328 322.788 199.54H327.616C326.46 200.764 325.236 201.92 324.08 202.94H321.428V208.244C316.328 208.652 311.636 208.992 307.828 209.264L308.644 216.472C312.384 216.132 316.736 215.724 321.428 215.316V221.096C321.428 221.844 321.156 222.048 320.272 222.116C319.456 222.116 316.464 222.116 313.88 222.048C314.832 223.952 315.852 226.808 316.192 228.916C320.408 228.916 323.536 228.848 325.984 227.76C328.432 226.604 329.044 224.768 329.044 221.3V214.636C333.124 214.296 337.272 213.956 341.352 213.548V206.612C337.272 206.952 333.124 207.36 329.044 207.632V206.272C332.376 203.62 335.844 200.152 338.564 196.956C340.264 198.316 342.168 200.084 343.052 201.104C344.14 199.676 345.16 198.112 346.18 196.412C347.404 201.444 348.9 206.068 350.804 210.216C347.268 215.18 342.576 218.988 336.184 221.844C337.68 223.544 340.06 227.284 340.808 229.188C346.724 226.196 351.416 222.524 355.156 218.036C358.216 222.524 361.956 226.196 366.648 228.984C367.872 226.74 370.388 223.544 372.224 221.912C367.192 219.328 363.248 215.384 360.188 210.556C363.792 203.62 366.104 195.324 367.532 185.26H371.544ZM414.412 173.7C413.596 172.952 412.44 172.068 411.148 171.116C412.44 169.96 413.596 168.668 414.548 167.376L409.312 165.812C408.632 166.696 407.816 167.58 406.932 168.396C405.572 167.58 404.212 166.832 402.988 166.22L399.248 169.348C400.404 169.96 401.628 170.64 402.852 171.388C401.152 172.476 399.384 173.36 397.548 174.108C398.84 174.992 400.948 176.828 401.832 177.78C403.6 176.828 405.436 175.672 407.272 174.38C408.564 175.4 409.652 176.352 410.468 177.168L414.412 173.7ZM420.056 198.112L418.356 198.52H389.456V204.164H411.352C409.992 205.184 408.496 206.136 407.068 206.952H403.056V210.08H377.42V216.404H403.056V221.096C403.056 221.98 402.716 222.184 401.628 222.252C400.54 222.252 396.528 222.252 393.196 222.116C394.216 224.02 395.372 226.808 395.78 228.916C400.88 228.916 404.62 228.916 407.34 227.828C410.196 226.808 410.944 225.108 410.944 221.368V216.404H436.648V210.08H412.78C416.928 207.7 421.144 204.912 424.544 202.192L420.056 198.112ZM431.616 189.748C432.296 183.424 432.84 174.788 433.18 167.58H416.044V172.68H425.292L425.156 174.992H416.316V180.024H424.816L424.68 182.336H416.112V187.368H424.204L424 189.748H390.068L389.932 187.368H398.432V186.756C399.656 187.64 401.084 188.932 401.832 189.68C403.668 188.66 405.64 187.436 407.544 186.008C408.972 187.096 410.196 188.116 411.012 189L415.092 185.6C414.14 184.716 412.848 183.696 411.42 182.676C412.78 181.452 413.936 180.092 414.888 178.732L409.652 177.168C408.972 178.12 408.088 179.072 407.136 179.956C405.776 179.14 404.416 178.392 403.192 177.78L399.452 180.84C400.608 181.52 401.9 182.268 403.124 183.016C401.628 183.968 400.064 184.852 398.432 185.668V182.336H389.66L389.524 180.024H398.228V174.992H389.252L389.184 173.428C392.312 172.612 395.916 171.456 398.772 170.096L395.032 165.744C392.652 166.764 388.98 168.26 385.784 169.28L381.364 168.396L382.656 189.748H377.42V203.688H385.104V195.596H428.76V203.688H436.784V189.748H431.616ZM471.628 201.444V196.412H479.788V198.792C479.788 199.608 479.788 200.56 479.72 201.444H471.628ZM471.628 185.94H479.788V190.904H471.628V185.94ZM495.36 185.94V190.904H487.812V185.94H495.36ZM495.36 201.444H487.744C487.812 200.56 487.812 199.676 487.812 198.86V196.412H495.36V201.444ZM503.18 207.36V180.024H487.812V175.944H504.88V168.872H463.604L463.944 167.988L456.328 165.608C453.2 175.264 447.76 184.92 442.048 191.108C443.408 193.148 445.72 197.5 446.468 199.472C447.624 198.18 448.78 196.752 449.936 195.12V228.78H457.688V182.54C459.796 178.392 461.7 174.108 463.264 169.892V175.944H479.788V180.024H464.148V207.36H478.972C478.36 209.74 477.408 211.916 475.708 213.956C472.92 212.324 470.608 210.488 468.772 208.244L461.768 210.692C464.012 213.752 466.8 216.404 469.86 218.58C467.072 220.144 463.4 221.368 458.844 222.32C460.408 223.952 462.788 227.148 463.74 228.984C469.316 227.284 473.736 225.176 477.068 222.728C484.004 225.788 492.3 227.624 502.16 228.44C503.18 226.196 505.288 222.728 507.056 220.892C497.74 220.416 489.512 219.192 482.848 217.016C484.888 214.024 486.248 210.76 486.996 207.36H503.18ZM531.36 192.944H543.056V185.532H531.36V175.4C535.508 174.38 539.452 173.224 542.852 171.864L537.14 165.608C530.544 168.6 519.596 171.184 509.804 172.612C510.756 174.312 511.776 177.168 512.116 178.936C515.788 178.46 519.664 177.848 523.54 177.1V185.532H510.62V192.944H521.976C518.916 200.016 513.952 207.768 509.056 212.528C510.348 214.568 512.32 218.036 513.136 220.416C516.876 216.472 520.48 210.624 523.54 204.436V228.78H531.36V205.32C534.08 208.108 536.936 211.168 538.568 213.276L543.26 206.34C541.424 204.912 534.692 199.132 531.36 196.616V192.944ZM554.14 173.632H546.252V211.644H554.14V173.632ZM562.3 166.696V218.988C562.3 220.212 561.756 220.62 560.464 220.688C559.036 220.688 554.684 220.688 550.264 220.484C551.488 222.796 552.712 226.536 553.052 228.848C559.24 228.916 563.796 228.644 566.584 227.284C569.372 225.992 570.324 223.748 570.324 219.056V166.696H562.3ZM603.06 220.824C595.92 220.824 594.696 220.348 594.696 217.492V208.108H616.864V185.668H591.024C592.248 184.036 593.404 182.268 594.56 180.5H627.472C626.996 196.276 626.384 202.192 625.296 203.688C624.752 204.504 624.072 204.708 623.052 204.708C621.828 204.708 619.448 204.708 616.932 204.436C618.156 206.476 618.972 209.808 619.04 212.12C622.44 212.188 625.5 212.188 627.404 211.848C629.58 211.508 631.076 210.76 632.504 208.72C634.476 206.068 635.088 197.908 635.7 176.352C635.768 175.264 635.836 172.884 635.836 172.884H598.844C599.728 171.116 600.544 169.28 601.292 167.444L592.656 165.064C589.256 174.176 583.068 183.22 576.132 188.66C578.24 189.952 581.776 192.808 583.34 194.44C585.312 192.604 587.216 190.496 589.12 188.184V192.74H608.908V200.968H586.672V217.628C586.672 226.128 590.344 228.372 602.992 228.372H624.752C635.496 228.372 638.284 225.856 639.576 215.452C637.332 215.112 633.728 213.82 631.892 212.664C631.144 219.668 630.26 220.824 624.412 220.824H603.06Z" fill="#2F1136"/>
<path fill-rule="evenodd" clip-rule="evenodd" d="M122.714 226.966C126.536 228.481 130.124 228.852 131.666 228.075C135.533 226.128 133.548 210.323 129.5 204.771C125.451 199.219 109.005 199.852 110.036 212.305C110.394 216.628 112.643 220.084 115.59 222.673L114.452 245.706L127.375 243.019L122.714 226.966Z" fill="#D4A181"/>
<path fill-rule="evenodd" clip-rule="evenodd" d="M121.064 199.156C119.316 199.212 114.699 199.961 113.854 200.137C113.313 200.249 112.747 200.503 112.348 200.04C112.021 199.662 112.007 198.909 111.853 198.422C111.675 197.857 111.46 197.307 111.243 196.759C110.627 195.2 109.832 193.76 108.827 192.462C106.942 190.026 104.46 188.327 101.546 187.644C98.3282 186.89 94.8733 187.283 91.676 188.236C88.2546 189.256 85.2995 191.129 82.1987 192.957C79.2438 194.7 76.0417 195.81 72.6998 195.954C69.3328 196.099 66.5651 194.716 63.5231 193.49C60.409 192.235 56.9851 191.702 53.6719 192.677C50.5791 193.588 47.8992 195.566 45.5855 197.946C43.4207 200.173 41.7321 202.662 41.0403 205.814C40.2961 209.205 40.8131 212.65 43.2252 215.008C46.7213 218.427 52.2497 218.349 56.7041 217.317C59.2806 216.719 61.7445 215.688 64.0484 214.265C67.1209 212.368 69.6242 209.714 72.4182 207.402C73.7295 206.317 75.1099 205.363 76.5886 204.575C78.0235 203.81 79.4725 203.295 80.9779 203.979C82.5705 204.704 84.0108 205.441 85.7532 205.74C87.4248 206.026 89.1494 206.023 90.8302 205.659C94.1004 204.951 97.1651 203.192 100.236 201.802C102.74 200.669 105.426 199.5 108.156 199.521C109.295 199.53 110.98 199.687 111.561 200.827C105.049 203.517 103.739 212.907 106.602 219.005C108.147 222.297 114.894 225.117 117.003 222.779C118.339 221.298 117.192 219.957 116.447 219.069C115.021 217.369 114.259 214.962 116.161 213.176C117.801 211.636 120.122 214.001 120.158 213.99C120.65 213.845 124.571 210.351 126.972 205.942C129.928 205.518 130.064 203.367 129.113 201.828C128.161 200.29 123.479 199.078 121.064 199.156Z" fill="#191847"/>
<path fill-rule="evenodd" clip-rule="evenodd" d="M130.786 223.222C130.219 223.194 129.659 223.011 129.183 222.692C129.018 222.581 128.933 222.432 128.905 222.279C128.874 222.106 128.918 221.924 129.014 221.779C129.111 221.633 129.258 221.526 129.425 221.495C129.571 221.468 129.736 221.496 129.9 221.615L129.934 221.638C130.218 221.832 130.543 221.958 130.877 221.996C131.198 222.032 131.527 221.986 131.832 221.838C132.414 221.556 132.715 221.08 133.001 220.476C133.036 220.4 133.07 220.323 133.105 220.244C133.121 220.178 133.157 220.127 133.204 220.09C133.257 220.049 133.325 220.026 133.395 220.026C133.462 220.026 133.529 220.047 133.583 220.087C133.635 220.125 133.676 220.18 133.695 220.254C133.818 220.732 133.723 221.23 133.495 221.675C133.242 222.17 132.826 222.597 132.383 222.851C131.894 223.132 131.337 223.25 130.786 223.222ZM123.741 214.792C123.533 214.003 124.656 213.412 125.041 214.129C125.386 214.772 125.482 215.44 125.387 216.161C125.297 216.85 124.455 216.84 124.211 216.328C123.884 215.641 123.87 215.283 123.741 214.792ZM131.056 210.57C131.117 210.309 131.262 210.094 131.527 210.093C132.353 210.091 132.577 211.417 132.532 212.116C132.508 212.496 132.084 212.739 131.776 212.521C131.275 212.165 130.781 211.274 131.041 210.657C131.044 210.629 131.049 210.6 131.056 210.57ZM124.196 211.06L124.346 211.037C124.81 210.966 125.386 210.901 125.706 211.273C125.876 211.471 125.929 211.833 125.692 212.015C125.276 212.335 124.826 212.2 124.334 212.218C123.928 212.234 123.538 212.293 123.146 212.396C122.286 212.621 121.581 213.049 120.841 213.519C120.744 213.58 120.649 213.458 120.696 213.37C121.133 212.563 121.963 211.908 122.789 211.515C123.23 211.306 123.711 211.134 124.196 211.06ZM128.918 208.989L128.972 208.933C129.566 208.325 130.498 207.616 131.747 207.817C131.906 207.88 131.932 207.911 131.947 207.932L131.952 207.94C131.966 207.958 131.987 207.978 131.986 208.032C131.976 208.042 131.965 208.052 131.954 208.062C131.812 208.187 131.664 208.268 131.514 208.344L131.351 208.425C131.162 208.52 130.977 208.618 130.815 208.739C130.471 208.998 130.171 209.293 129.925 209.621C129.872 209.692 129.794 209.747 129.696 209.772C129.602 209.796 129.491 209.793 129.361 209.752C129.193 209.7 129.08 209.633 128.968 209.508C128.884 209.414 128.841 209.318 128.833 209.23C128.825 209.139 128.855 209.055 128.918 208.989Z" fill="black"/>
<path fill-rule="evenodd" clip-rule="evenodd" d="M113.515 295.95C116.608 309.935 185.314 338.715 185.854 339.811C186.214 340.542 173.81 393.248 173.81 393.248L179.61 394.387C179.61 394.387 202.091 336.624 199.719 331.461C196.323 324.068 143.526 289.864 143.526 289.864L113.515 295.95Z" fill="#B28B67"/>
<path fill-rule="evenodd" clip-rule="evenodd" d="M174.151 385.63L183.585 387.255C198.975 360.608 203.533 340.315 200.759 331.036C197.985 321.756 144.746 289.49 144.746 289.49L112.881 296.118C118.887 328.747 180.42 341.07 181.404 342.309C182.388 343.548 176.821 358.845 174.151 385.63Z" fill="#2F3676"/>
<path fill-rule="evenodd" clip-rule="evenodd" d="M174.081 392.728C173.084 392.095 171.727 392.358 171.177 393.444C170.682 394.421 170.179 395.541 170.048 396.282C169.77 397.85 169.718 400.943 169.718 400.943C171.396 401.232 199.878 406.137 199.878 406.137C199.878 406.137 201.801 402.124 199.328 401.352C196.854 400.58 195.227 400.02 195.227 400.02L182.803 391.11C182.341 390.779 181.698 390.923 181.398 391.425L180.322 393.23C180.322 393.23 177.767 394.013 176.301 393.76C175.667 393.651 174.829 393.202 174.081 392.728Z" fill="#E4E4E4"/>
<path fill-rule="evenodd" clip-rule="evenodd" d="M120.695 294.456L103.596 371.857L85.3172 438.089L91.7684 436.747L142.563 289.908L120.695 294.456Z" fill="#997659"/>
<path fill-rule="evenodd" clip-rule="evenodd" d="M85.9034 424.998L100.67 424.899C109.137 405.122 144.797 323.833 144.889 289.425L112.977 296.062C99.6027 323.703 93.8092 405.039 85.9034 424.998Z" fill="#5C63AB"/>
<path fill-rule="evenodd" clip-rule="evenodd" d="M182.888 255.635L164.823 268.847L172.31 276.099L185.071 261.082C192.128 258.135 195.316 256.202 194.634 255.281C194.06 254.504 193.226 254.627 192.458 254.74C191.859 254.828 191.301 254.911 190.936 254.557C190.103 253.75 191.368 250.46 192.69 247.388C194.012 244.317 192.407 244.752 191.507 245.273C188.62 247.828 185.747 251.282 182.888 255.635ZM97.9596 287.768L86.6158 287.71C82.3225 310.37 79.6106 322.863 78.4801 325.187C77.651 326.892 71.7389 332.067 67.6554 335.024C66.0163 336.21 66.6342 337.731 67.2276 338.136C70.9708 340.686 73.8317 338.925 76.946 337.007C77.8476 336.452 78.7704 335.884 79.742 335.404C82.2568 334.16 83.2707 335.442 84.2289 336.653C85.0772 337.725 85.8819 338.742 87.6459 337.903C87.5047 337.534 87.3374 337.122 87.1569 336.678C85.9901 333.806 84.2694 329.571 85.4449 326.658C86.0482 325.164 90.2197 312.2 97.9596 287.768Z" fill="#D4A181"/>
<path fill-rule="evenodd" clip-rule="evenodd" d="M120.868 235.028L125.379 233.209C137.06 241.638 144.972 266.078 152.207 268.027C159.047 269.869 167.613 264.929 177.72 258.563L182.186 265.765C174.137 279.12 154.806 293.007 145.571 289.293C130.807 283.355 123.027 252.801 120.868 235.028Z" fill="#FFA5A1"/>
<path fill-rule="evenodd" clip-rule="evenodd" d="M110.027 301.86C110.027 301.86 137.927 296.06 151.072 293.327C152.947 292.937 152.158 290.101 151.667 288.69C146 272.396 131.05 256.67 127.437 232.551L115.299 233.017C108.041 251.973 107.775 273.509 110.027 301.86Z" fill="#DDE3E9"/>
<path fill-rule="evenodd" clip-rule="evenodd" d="M116.672 232.732L114.535 233.176C90.6132 256.277 78.6467 286.865 78.6355 324.941L87.51 324.963C92.1406 316.646 97.4252 303.51 103.364 285.556C102.26 295.857 101.886 306.264 102.72 315.859L139.667 308.178C143.911 287.272 119.223 232.202 119.223 232.202L116.672 232.732Z" fill="#FFA5A1"/>
<path fill-rule="evenodd" clip-rule="evenodd" d="M426.024 92.2352C423.769 89.4591 421.239 87.5937 419.785 87.4502C416.14 87.0904 411.422 99.0986 412.263 104.816C413.104 110.533 425.611 117.443 429.725 108.22C431.153 105.019 430.832 101.581 429.651 98.4419L439.53 82.7458L428.844 78.8561L426.024 92.2352Z" fill="#D4A181"/>
<path fill-rule="evenodd" clip-rule="evenodd" d="M412.035 102.303C411.915 102.961 411.924 103.743 411.919 104.405C411.913 105.258 412.073 106.087 412.287 106.892C412.691 108.408 413.306 109.868 414.094 111.18C415.534 113.578 417.785 115.478 420.454 116.098C421.801 116.411 423.231 116.378 424.594 115.952C425.824 115.568 427.145 114.822 428.42 115.199C429.808 115.608 430.619 117.251 431.44 118.382C432.366 119.657 433.451 120.736 434.8 121.492C437.06 122.76 439.611 122.775 441.979 121.419C444.5 119.977 446.893 117.387 446.741 114.204C446.713 113.613 446.594 113.079 446.327 112.576C446.082 112.115 445.654 111.562 445.697 110.983C445.744 110.367 446.474 109.817 446.84 109.379C447.363 108.752 447.852 108.072 448.062 107.259C448.406 105.925 448.039 104.398 447.486 103.237C446.924 102.056 446.025 101.169 444.956 100.522C444.243 100.09 443.487 99.7199 442.685 99.4925C442.287 99.3796 441.905 99.3621 441.498 99.3104C441.102 99.2602 440.933 99.0893 440.696 98.7772C439.591 97.3273 438.172 96.4054 436.458 95.9374C435.012 95.5425 433.27 95.2915 431.777 95.8304C430.118 96.4289 429.611 97.9019 429.341 99.5749C429.081 99.3033 428.239 98.8873 428.536 99.7005C428.654 100.023 429.01 100.266 429.224 100.508C429.473 100.79 429.709 101.122 429.849 101.485C430.418 102.951 428.611 104.857 427.253 104.784C425.234 104.677 425.756 101.976 424.7 100.844C424.092 100.193 423.123 100.428 422.371 100.754C421.365 101.192 420.512 101.946 419.724 102.743C419.074 103.399 418.445 104.075 417.79 104.725C417.484 105.028 416.51 105.846 416.659 106.369C415.264 106.153 414.01 105.088 413.146 103.976C412.789 103.516 412.552 103.066 412.492 102.462C412.479 102.333 412.483 101.963 412.344 101.897C412.083 101.774 412.065 102.138 412.035 102.303Z" fill="#191847"/>
<path fill-rule="evenodd" clip-rule="evenodd" d="M416.57 92.0547C416.954 92.2137 417.296 92.4788 417.546 92.8176C417.633 92.9354 417.656 93.0597 417.637 93.1735C417.617 93.3014 417.543 93.4173 417.441 93.495C417.339 93.573 417.212 93.6115 417.089 93.5919C416.982 93.5748 416.875 93.5153 416.791 93.3918L416.773 93.3671C416.624 93.1626 416.431 92.9948 416.21 92.8867C415.997 92.7825 415.759 92.7339 415.513 92.7621C415.043 92.816 414.72 93.0738 414.376 93.4239C414.334 93.4681 414.291 93.5137 414.248 93.5601C414.221 93.6021 414.184 93.629 414.142 93.6432C414.096 93.6589 414.043 93.658 413.995 93.641C413.949 93.6246 413.908 93.5935 413.88 93.5522C413.854 93.5129 413.839 93.4643 413.844 93.4084C413.875 93.0456 414.062 92.7218 414.327 92.4675C414.622 92.1851 415.012 91.9897 415.379 91.9212C415.784 91.8457 416.197 91.8998 416.57 92.0547ZM415.188 97.6523C414.758 97.3862 414.101 96.7657 414.565 96.1061C415.11 95.5244 415.895 96.1913 416.282 96.4929C416.641 96.7267 417.044 96.1255 416.712 95.8526C413.915 93.7485 412.78 97.5827 414.97 97.9651C415.212 98.0073 415.301 97.7346 415.188 97.6523ZM420.2 100.1C420.152 100.7 419.252 100.837 419.163 100.242C419.083 99.7103 419.177 99.2214 419.413 98.7423C419.638 98.2846 420.205 98.4981 420.248 98.9149C420.305 99.4737 420.229 99.7264 420.2 100.1ZM413.351 100.366C413.225 100.533 413.044 100.647 412.827 100.582C412.149 100.381 412.349 99.4027 412.587 98.9266C412.716 98.668 413.135 98.6025 413.324 98.8301C413.632 99.2014 413.779 99.9428 413.388 100.308C413.377 100.327 413.365 100.346 413.351 100.366ZM419.423 102.727L419.315 102.746C418.984 102.804 418.572 102.86 418.338 102.589C418.214 102.446 418.171 102.179 418.338 102.042C418.632 101.8 418.957 101.894 419.309 101.873C419.599 101.856 419.878 101.807 420.158 101.726C420.771 101.548 421.271 101.223 421.795 100.866C421.863 100.819 421.933 100.908 421.901 100.974C421.598 101.575 421.012 102.07 420.425 102.371C420.112 102.532 419.769 102.666 419.423 102.727ZM413.969 102.996L413.887 102.979C412.995 102.79 411.836 102.411 411.413 101.521C411.397 101.395 411.414 101.368 411.428 101.351L411.433 101.345C411.444 101.33 411.453 101.309 411.507 101.292C411.522 101.295 411.537 101.299 411.552 101.303C411.746 101.355 411.899 101.426 412.047 101.5L412.208 101.58C412.395 101.673 412.583 101.763 412.782 101.829C413.208 101.97 413.646 102.069 414.09 102.122C414.187 102.134 414.28 102.167 414.353 102.223C414.422 102.277 414.475 102.352 414.5 102.451C414.531 102.579 414.522 102.676 414.454 102.791C414.403 102.878 414.331 102.938 414.247 102.973C414.162 103.008 414.065 103.016 413.969 102.996Z" fill="black"/>
<path fill-rule="evenodd" clip-rule="evenodd" d="M410.74 97.3674C411.442 96.6417 412.614 96.4335 413.548 96.8226C415.946 97.825 414.772 100.951 412.923 101.791C412.692 101.849 412.383 101.985 412.102 102.016C412.076 102.029 412.021 101.993 411.954 102.027C409.914 101.799 409.45 98.6321 410.74 97.3674ZM418.475 97.1817C419.262 96.137 420.726 95.8147 421.922 96.3003C424.285 97.2311 423.447 100.004 421.83 101.09C418.416 102.374 417.006 99.1079 418.475 97.1817ZM423.597 99.496C423.599 99.4971 423.601 99.4976 423.604 99.4987C423.591 99.5042 423.578 99.5098 423.566 99.5155C423.57 99.5047 423.574 99.4941 423.578 99.4834C423.584 99.4877 423.59 99.4927 423.597 99.496ZM409.114 100.626C409.307 100.625 409.586 100.594 409.745 100.46C410.139 101.788 411.591 103.016 412.855 102.12C413.85 101.8 414.588 101.09 415.007 100.147C415.764 100.597 416.953 100.405 417.609 99.8094C418.039 101.23 419.096 101.727 420.355 101.8C421.728 102.025 423.097 100.691 423.525 99.6202C423.88 99.6607 424.41 99.7737 424.745 99.5545C426.913 100.123 430.705 100.437 431.146 100.121C431.46 100 431.632 99.2585 431.194 99.2184C430.811 99.2728 431.238 99.7621 430.853 99.8154C428.799 99.9428 426.805 99.529 424.773 99.3554C424.591 99.1112 424.005 99.0295 423.692 99.1276C424.185 97.3116 423.121 96.076 421.528 95.7059C419.061 95.139 416.915 97.3468 417.56 99.6432C416.812 100.015 415.953 99.9992 415.139 99.8032C416.499 94.7945 408.435 95.0193 409.695 100.288C408.857 99.8711 408.675 100.542 409.114 100.626Z" fill="black"/>
<path fill-rule="evenodd" clip-rule="evenodd" d="M452.178 46.9153L451.366 -17.3391L451.54 -64.4171L443 -67.5254L427.88 38.0718L452.178 46.9153Z" fill="#1F28CF"/>
<path fill-rule="evenodd" clip-rule="evenodd" d="M457.459 48.8375C464.744 29.5435 474.072 3.39242 475.053 2.38144C476.034 1.37046 518.737 -12.8915 518.737 -12.8915L517.057 -21.9702C517.057 -21.9702 468.51 -10.9516 465.271 -8.30832C462.032 -5.66504 440.627 21.7163 428.624 38.3425L457.459 48.8375Z" fill="#2B44FF"/>
<path fill-rule="evenodd" clip-rule="evenodd" d="M495.18 44.6872C492.576 46.4296 472.807 68.1574 472.807 68.1574L465.507 63.8965C465.507 63.8965 488.956 41.8165 490.49 40.6153C492.484 39.0549 492.797 35.2962 493.01 32.7474C493.042 32.3531 493.073 31.9878 493.107 31.664C494.755 31.8336 494.975 32.9063 495.207 34.0373C495.469 35.3146 495.746 36.6662 498.114 36.8747C499.029 36.9552 499.94 36.9522 500.831 36.9492C503.907 36.9388 506.733 36.9293 508.584 40.3689C508.878 40.9142 508.765 42.2641 507.079 42.3958C502.877 42.7239 496.453 43.8354 495.18 44.6872ZM399.961 24.9485L410.329 40.5064L416.278 33.9009L404.378 22.9804C402.111 16.8755 400.601 14.1252 399.85 14.7296C399.216 15.2391 399.303 15.9635 399.382 16.6307C399.444 17.1504 399.502 17.6355 399.213 17.9573C398.551 18.6923 395.92 17.6325 393.467 16.5199C391.014 15.4073 391.341 16.7991 391.747 17.5756C393.761 20.0566 396.499 22.5142 399.961 24.9485Z" fill="#B28B67"/>
<path fill-rule="evenodd" clip-rule="evenodd" d="M422.463 86.7366L427.919 86.5151C428.321 85.2558 428.968 83.4919 429.71 81.4711C432.039 75.1284 435.296 66.2547 434.805 62.5059C433.105 49.5186 423.522 39.5879 412.849 28.5274C411.419 27.0449 409.968 25.542 408.515 24.0088L402.287 30.0086C402.594 30.4526 402.896 30.897 403.195 31.3417C402.562 31.3344 401.933 31.6087 401.507 32.1419C400.774 33.0602 400.923 34.3989 401.84 35.1319C403.703 36.6214 405.574 37.6445 407.442 38.1765C416.659 54.2393 420.831 70.6353 422.463 86.7366Z" fill="#69A1AC"/>
<path fill-rule="evenodd" clip-rule="evenodd" d="M461.974 44.8243C461.974 44.8243 441.884 34.9055 429.03 32.8337C427.968 32.6626 426.452 36.9625 426.487 38.3001C427.023 59.1293 426.883 74.1835 422.277 86.8389C424.626 86.5251 429.295 89.0429 429.295 89.0429C442.879 79.2176 452.388 65.7321 461.974 44.8243Z" fill="#191847"/>
<path fill-rule="evenodd" clip-rule="evenodd" d="M488.595 54.2641C463.418 85.0676 432.468 91.4048 432.468 91.4048L431.778 91.1535L430.071 90.5324L427.421 89.5679C430.748 82.2064 432.071 70.2134 433.606 56.3009C436.061 34.0507 439.058 6.89076 451.658 -14.0855C457.488 -13.3288 463.524 -10.2 470.057 -6.8128C479.487 -1.92432 489.955 3.50232 502.342 3.11306C498.634 12.0035 489.718 20.0939 480.843 28.1477C475.217 33.2527 469.607 38.3431 465.35 43.6133C465.662 44.2317 465.666 44.99 465.294 45.6345L464.582 46.8675C464.102 47.6991 463.146 48.0835 462.257 47.8744C461.865 48.4868 461.496 49.1022 461.151 49.7209C459.386 52.8823 458.524 56.3274 457.672 59.7337L457.672 59.7338C457.204 61.6039 456.739 63.4625 456.129 65.256C464.002 62.1176 474.561 55.4928 486.463 41.6803L493.946 47.2003C493.191 48.2758 492.429 49.3262 491.659 50.352C492.434 51.2405 492.653 54.1989 491.681 54.3254C490.655 54.459 489.626 54.4372 488.595 54.2641Z" fill="#89C5CC"/>
<path fill-rule="evenodd" clip-rule="evenodd" d="M430.797 90.2934L435.652 84.0771L432.965 77.1142L438.644 74.4778L434.853 53.5264L440.903 75.261L435.286 77.959L437.679 84.1188L430.797 90.2934Z" fill="black" fill-opacity="0.1"/>
<path fill-rule="evenodd" clip-rule="evenodd" d="M440.236 47.9374C439.255 47.5805 438.171 48.087 437.814 49.0686C437.457 50.0502 437.962 51.1353 438.942 51.4921C439.922 51.8489 441.007 51.3424 441.364 50.3608C441.721 49.3792 441.216 48.2942 440.236 47.9374ZM441.737 36.91C440.756 36.5531 439.672 37.0596 439.315 38.0412C438.957 39.0228 439.462 40.1079 440.443 40.4647C441.423 40.8215 442.508 40.315 442.865 39.3334C443.222 38.3518 442.717 37.2668 441.737 36.91ZM442.591 27.6599C442.948 26.6783 444.032 26.1718 445.013 26.5286C445.993 26.8854 446.498 27.9705 446.141 28.9521C445.783 29.9337 444.699 30.4402 443.719 30.0833C442.738 29.7265 442.233 28.6415 442.591 27.6599Z" fill="black" fill-opacity="0.4"/>
<path fill-rule="evenodd" clip-rule="evenodd" d="M682.08 243.456C679.805 247.937 676.882 251.241 674.927 251.859C670.026 253.409 659.988 238.209 659.45 230.079C658.912 221.95 674.048 208.803 682.432 220.336C685.341 224.339 685.918 229.174 685.225 233.846L703.447 252.642L689.917 261.096L682.08 243.456Z" fill="#D4A181"/>
<path fill-rule="evenodd" clip-rule="evenodd" d="M685.821 212.635C685.987 211.929 685.84 211.162 685.679 210.447C685.512 209.703 685.336 208.957 685.081 208.234C684.573 206.789 683.665 205.329 682.145 204.91C680.926 204.574 679.617 204.9 678.564 205.45C677.863 205.817 677.234 206.341 676.724 206.952C676.218 207.559 675.93 208.319 675.475 208.963C674.597 207.612 673.47 206.329 672.048 205.595C670.68 204.89 669.222 204.924 667.907 205.515C666.557 206.12 665.511 207.178 664.774 208.476C664.59 208.8 664.413 209.131 664.26 209.474C664.132 209.762 664.015 210.086 663.794 210.309C663.547 210.558 663.299 210.48 662.979 210.387C662.604 210.277 662.219 210.214 661.836 210.186C660.14 210.058 658.395 210.659 657.369 212.013C656.896 212.636 656.543 213.414 656.467 214.229C656.399 214.955 656.619 215.903 656.316 216.57C656.187 216.853 655.911 216.757 655.622 216.739C655.188 216.713 654.754 216.656 654.319 216.637C653.709 216.612 653.11 216.682 652.543 216.877C651.713 217.162 650.735 217.828 651.121 218.907C651.266 219.312 651.564 219.656 651.814 220C652.157 220.472 652.501 220.943 652.852 221.409C653.118 221.763 653.385 222.098 653.686 222.422C653.846 222.594 654.192 222.886 654.23 223.134C654.279 223.445 653.707 223.608 653.505 223.746C653.107 224.018 652.741 224.347 652.472 224.757C652.264 225.076 652.081 225.467 652.167 225.88C652.22 226.134 652.372 226.334 652.54 226.523C652.743 226.751 652.778 226.917 652.906 227.194C652.188 227.267 649.91 227.855 650.286 228.988C650.411 229.366 650.823 229.623 651.135 229.812C651.68 230.145 652.275 230.389 652.865 230.608C654.095 231.065 655.38 231.318 656.658 231.423C655.92 232.516 656.491 234.023 657.874 234.268C658.485 234.376 659.06 234.127 659.538 233.796C659.714 233.675 659.93 233.443 660.092 233.386C660.179 233.355 660.301 233.369 660.411 233.31C661.136 232.923 661.817 232.265 662.4 231.686C663.44 230.654 664.228 229.364 664.618 227.905C664.718 227.53 664.836 227.277 665.162 227.079C665.447 226.904 665.773 226.808 666.061 226.639C666.822 226.19 667.268 225.402 667.812 224.723C668.441 225.636 669.356 226.504 670.268 227.109C671.012 227.602 671.729 227.293 672.41 226.952C674.588 225.86 676.517 224.354 678.578 223.07C676.866 224.767 674.922 226.24 673.278 228.004C672.534 228.802 673.592 228.978 674.235 229.156C675.293 229.451 676.293 230.01 677.177 230.704C677.358 228.823 678.559 226.909 680.33 226.345C682.287 225.722 684.901 227.261 684.847 229.576C684.815 230.919 683.914 231.994 683.228 232.991C684.439 233.296 685.321 234.312 686.357 234.985C686.867 235.318 687.504 235.656 688.094 235.514C688.312 235.462 688.526 235.335 688.761 235.393C689.051 235.465 689.22 235.642 689.542 235.658C690.831 235.721 692.204 234.797 692.491 233.484C692.75 232.298 691.834 231.249 690.766 230.877C691.474 229.88 692.897 228.278 691.585 227.024C693.573 225.591 696.507 219.081 692.188 218.363C693.176 216.545 693.261 213.559 691.118 212.312C689.467 211.352 687.31 211.81 685.821 212.635Z" fill="#191847"/>
<path fill-rule="evenodd" clip-rule="evenodd" d="M757.262 368.372C757.262 368.372 733.34 375.059 715.983 375.059C698.627 375.059 683.74 364.761 683.74 364.761C683.74 364.761 707.15 357.896 722.299 357.896C737.447 357.896 757.262 368.372 757.262 368.372Z" fill="#6F7DE2"/>
<path fill-rule="evenodd" clip-rule="evenodd" d="M702.177 381.485C702.331 381.254 702.461 381.003 702.564 380.731C704.696 375.096 738.841 314.311 742.243 303.197H703.8C701.214 311.647 689.573 364.672 687.934 375.251C682.765 391.939 672.123 445.984 670.764 449.728C669.335 453.666 677.377 457.77 679.52 452.927C682.93 445.223 691.054 423.904 694.672 410.887C698.063 398.684 700.825 387.705 702.177 381.485Z" fill="#D4A181"/>
<path fill-rule="evenodd" clip-rule="evenodd" d="M733.629 388.907C749.239 392.85 806.34 399.979 810.258 401.097C814.289 402.247 817.823 393.943 812.841 392.145C804.913 389.282 783.068 382.669 769.824 379.97C759.171 377.799 749.45 376.028 742.923 374.991C743.476 356.668 746.004 312.695 744.347 303.197H710.332C711.921 312.305 725.35 378.757 727.846 385.408C728.638 387.783 731.002 388.832 733.629 388.907Z" fill="#D4A181"/>
<path fill-rule="evenodd" clip-rule="evenodd" d="M744.237 303.197C744.237 303.197 721.753 296.768 701.69 303.197C697.036 324.418 685.729 332.841 683.741 365.376C706.344 376.601 734.265 357.37 757.533 368.317C764.181 353.005 754.874 316.131 744.237 303.197Z" fill="#AAB4FF"/>
<path fill-rule="evenodd" clip-rule="evenodd" d="M658.61 341.163L669.589 317.301L679.291 325.151L665.17 342.92C663.361 351.887 661.869 356.034 660.694 355.361C659.703 354.794 659.665 353.77 659.629 352.827C659.601 352.093 659.576 351.407 659.103 351.025C658.023 350.151 654.605 352.201 651.445 354.285C648.285 356.368 648.433 354.366 648.827 353.199C651.078 349.315 654.339 345.303 658.61 341.163ZM771.622 326.329C768.392 323.342 748.425 289.809 748.425 289.809L735.496 294.831C735.496 294.831 762.351 328.945 764.217 330.947C766.64 333.548 766.247 338.829 765.98 342.41C765.939 342.964 765.901 343.477 765.877 343.934C768.202 344.06 768.743 342.621 769.314 341.103C769.958 339.389 770.64 337.576 773.973 337.806C775.26 337.895 776.525 338.099 777.76 338.298C782.027 338.987 785.947 339.62 789.274 335.256C789.801 334.565 789.942 332.668 787.63 332.115C781.871 330.739 773.201 327.789 771.622 326.329Z" fill="#D4A181"/>
<path fill-rule="evenodd" clip-rule="evenodd" d="M690.769 249.596L685.058 250.734C684.68 277.321 676.613 304.443 660.857 332.101L686.328 346.538C699.016 310.898 702.562 277.791 690.769 249.596Z" fill="#191847"/>
<path fill-rule="evenodd" clip-rule="evenodd" d="M739.975 307.97L692.264 326.284C692.264 326.284 693.368 279.602 682.55 251.421L696.119 243.751C714.413 257.602 726.205 278.775 739.975 307.97Z" fill="#DDE3E9"/>
<path fill-rule="evenodd" clip-rule="evenodd" d="M696.427 243.645L696.435 243.63C696.435 243.63 741.695 263.225 769.511 320.094L746.257 329.021C745.45 326.355 744.585 323.749 743.668 321.203L712.439 333.191C712.439 333.191 697.185 275.842 690.76 257.452L690.422 246.178C690.422 246.178 693.814 244.703 695.478 243.997L696.418 243.637C696.421 243.639 696.424 243.642 696.427 243.645Z" fill="#2F3676"/>
<path fill-rule="evenodd" clip-rule="evenodd" d="M743.757 321.449C739.784 310.354 734.844 300.401 729.628 291.679C733.034 303.096 736.378 317.124 735.056 324.789L743.757 321.449Z" fill="black" fill-opacity="0.1"/>
<path fill-rule="evenodd" clip-rule="evenodd" d="M729.472 304.891L711.298 303.641L714.051 310.811L729.472 304.891Z" fill="white" fill-opacity="0.2"/>
<path fill-rule="evenodd" clip-rule="evenodd" d="M669.479 246.305C670.214 246.303 670.947 246.108 671.579 245.703C672.152 245.337 672.678 244.744 672.983 244.074C673.254 243.479 673.351 242.824 673.161 242.21C673.139 242.14 673.097 242.089 673.044 242.054C672.988 242.017 672.92 242.001 672.853 242.004C672.785 242.008 672.718 242.033 672.668 242.076C672.623 242.115 672.59 242.169 672.579 242.236C672.535 242.35 672.491 242.462 672.446 242.572C672.082 243.442 671.683 244.128 670.88 244.567C670.445 244.805 669.967 244.896 669.495 244.864C668.99 244.83 668.492 244.657 668.059 244.375C667.863 244.248 667.671 244.229 667.502 244.277C667.31 244.332 667.147 244.476 667.046 244.659C666.947 244.839 666.909 245.056 666.958 245.257C667.001 245.433 667.111 245.598 667.309 245.715C667.963 246.104 668.722 246.307 669.479 246.305Z" fill="#231F20"/>
<path fill-rule="evenodd" clip-rule="evenodd" d="M666.928 237.491C666.356 238.116 665.584 239.409 666.637 240.237C667.787 240.903 668.745 239.475 669.23 238.814C669.701 238.274 670.63 239.038 670.219 239.628C666.681 244.283 663.074 238.736 666.431 237.097C666.801 236.917 667.072 237.307 666.928 237.491Z" fill="#231F20"/>
<path fill-rule="evenodd" clip-rule="evenodd" d="M672.888 233.735C673.07 233.527 673.318 233.401 673.648 233.449C673.906 233.485 674.406 233.714 674.816 234.085C675.097 234.34 675.338 234.664 675.42 235.051C675.439 235.141 675.491 235.196 675.556 235.229C675.608 235.255 675.674 235.266 675.746 235.255C675.806 235.245 675.87 235.219 675.918 235.187C676.01 235.126 676.044 235.045 676.049 234.986C676.093 234.413 675.841 233.862 675.471 233.406C674.972 232.791 674.266 232.359 673.861 232.272C673.167 232.123 672.456 232.314 671.953 232.82C671.524 233.25 671.337 233.797 671.155 234.352C671.116 234.47 671.077 234.587 671.036 234.703C670.953 234.936 670.995 235.131 671.097 235.278C671.209 235.442 671.405 235.55 671.619 235.575C671.816 235.598 672.022 235.549 672.18 235.42C672.314 235.311 672.417 235.146 672.444 234.908C672.488 234.507 672.621 234.04 672.888 233.735Z" fill="#231F20"/>
<path fill-rule="evenodd" clip-rule="evenodd" d="M661.773 237.843C661.949 237.878 662.076 237.867 662.231 237.767C662.316 237.711 662.393 237.63 662.445 237.536C662.496 237.444 662.522 237.339 662.513 237.234C662.491 236.975 662.558 236.706 662.706 236.501C662.832 236.326 663.018 236.198 663.258 236.169C663.517 236.138 663.798 236.228 664.014 236.367C664.087 236.413 664.15 236.472 664.213 236.53C664.331 236.638 664.444 236.738 664.583 236.802C664.635 236.827 664.705 236.834 664.766 236.816C664.791 236.809 664.815 236.797 664.837 236.783C665.01 236.465 665.003 236.265 664.941 236.082C664.876 235.89 664.742 235.715 664.564 235.568C664.148 235.222 663.493 235.031 663.097 235.059C662.555 235.099 662.087 235.378 661.764 235.781C661.432 236.196 661.255 236.741 661.308 237.282C661.321 237.412 661.369 237.542 661.45 237.644C661.529 237.743 661.637 237.816 661.773 237.843Z" fill="#231F20"/>
<path fill-rule="evenodd" clip-rule="evenodd" d="M669.999 231.63C670.437 231.549 670.694 231.269 670.949 230.981C671.091 230.822 671.205 230.695 671.331 230.58C671.68 230.266 672.068 229.986 672.49 229.778C672.93 229.56 673.432 229.339 673.923 229.271C674.04 229.255 674.158 229.245 674.275 229.236C674.383 229.227 674.486 229.218 674.589 229.205C674.708 229.19 674.827 229.18 674.947 229.171C675.037 229.177 675.058 229.181 675.08 229.184C675.113 229.19 675.15 229.196 675.19 229.201C675.245 229.208 675.306 229.214 675.365 229.216C675.468 229.224 675.505 229.215 675.528 229.201C675.566 229.178 675.596 229.152 675.614 229.118C675.63 229.087 675.636 229.05 675.632 229.007C675.613 228.794 675.456 228.624 675.257 228.489C674.954 228.284 674.546 228.161 674.271 228.119C673.633 228.022 672.911 228.003 672.281 228.148C671.562 228.313 670.91 228.589 670.302 229.006C669.923 229.265 669.517 229.586 669.262 229.979C669.078 230.262 668.974 230.582 669.025 230.943C669.056 231.165 669.189 231.355 669.367 231.481C669.549 231.609 669.778 231.671 669.999 231.63Z" fill="#231F20"/>
<path fill-rule="evenodd" clip-rule="evenodd" d="M658.939 233.68C658.945 233.718 658.962 233.75 658.986 233.775C659.011 233.8 659.043 233.818 659.077 233.826C659.112 233.834 659.149 233.832 659.182 233.82C659.214 233.808 659.244 233.787 659.266 233.756C659.817 232.978 660.461 232.497 661.442 232.421C661.925 232.383 662.436 232.444 662.913 232.521C663.052 232.544 663.193 232.58 663.335 232.616C663.781 232.728 664.234 232.833 664.649 232.607C664.899 232.471 665.077 232.238 665.136 231.983C665.193 231.742 665.146 231.481 664.958 231.258C664.489 230.703 663.622 230.698 662.913 230.707C662.861 230.707 662.809 230.708 662.759 230.708C662.067 230.713 661.394 230.818 660.758 231.104C660.254 231.331 659.701 231.747 659.336 232.259C659.033 232.684 658.86 233.175 658.939 233.68Z" fill="#231F20"/>
<path fill-rule="evenodd" clip-rule="evenodd" d="M487.917 275.943C484.393 278.067 480.931 279.093 479.306 278.675C475.231 277.624 474.856 262.716 478.009 256.838C481.163 250.961 497.373 248.399 498.19 260.044C498.473 264.086 496.776 267.693 494.269 270.636L498.765 291.59H485.705L487.917 275.943Z" fill="#B28B67"/>
<path fill-rule="evenodd" clip-rule="evenodd" d="M495.272 273.257C496.912 265.965 501.581 260.994 500.868 257.735C500.155 254.476 497.066 253.681 497.066 253.681C497.066 253.681 495.469 247.22 486.763 248.185C478.058 249.15 472.744 252.765 475.039 260.72C477.148 260.72 479.695 259.957 483.216 261.264C484.892 261.886 485.613 265.122 485.613 265.122H487.204C487.204 265.122 489.521 261.282 491.772 262.3C494.024 263.318 492.796 267.245 492.796 267.245L493.58 273.257H495.272Z" fill="#191847"/>
<path fill-rule="evenodd" clip-rule="evenodd" d="M477.818 271.896L477.777 271.887C477.452 271.81 477.14 271.706 476.838 271.907C476.549 272.099 476.509 272.453 476.734 272.712C476.965 272.978 477.271 272.963 477.595 272.967L477.615 272.967C477.883 272.971 478.156 272.967 478.424 272.943C478.673 272.921 478.924 272.885 479.171 272.839L479.317 272.81C479.466 272.78 479.613 272.741 479.689 272.596C479.823 272.345 478.828 272.148 478.707 272.113C478.414 272.029 478.115 271.963 477.818 271.896Z" fill="#231F20"/>
<path fill-rule="evenodd" clip-rule="evenodd" d="M477.266 268.864C477.424 269.029 477.634 269.141 477.869 269.211C478.46 269.387 479.214 269.293 479.697 269.114C479.797 269.077 479.891 269.001 479.944 268.907C479.994 268.82 480.01 268.718 479.973 268.615C479.962 268.585 479.949 268.556 479.936 268.528C479.901 268.45 479.829 268.39 479.744 268.355C479.656 268.319 479.556 268.312 479.475 268.337C479.465 268.341 479.454 268.344 479.442 268.348C479.136 268.444 478.635 268.604 478.219 268.573C477.97 268.554 477.75 268.466 477.637 268.238C477.577 268.118 477.594 267.999 477.647 267.89C477.727 267.725 477.887 267.582 478.022 267.484C478.212 267.345 478.415 267.289 478.625 267.231C478.704 267.209 478.784 267.186 478.865 267.159C478.891 267.151 478.915 267.133 478.932 267.111C478.949 267.089 478.961 267.062 478.964 267.034C478.968 267.006 478.963 266.978 478.95 266.954C478.938 266.932 478.919 266.912 478.89 266.899C478.479 266.715 477.948 266.836 477.548 267.126C477.347 267.271 477.18 267.456 477.077 267.664C476.982 267.857 476.941 268.068 476.979 268.284C477.021 268.525 477.123 268.716 477.266 268.864Z" fill="#231F20"/>
<path fill-rule="evenodd" clip-rule="evenodd" d="M484.219 263.381C484.103 263.33 484.008 263.568 483.985 263.633L483.936 263.768C483.855 263.985 483.763 264.206 483.595 264.367C483.454 264.502 483.228 264.616 483.065 264.458C482.91 264.308 482.985 264.14 482.962 263.956C482.921 263.624 482.468 263.292 482.196 263.639C481.581 264.422 482.532 265.511 483.409 265.32C483.855 265.223 484.214 264.865 484.361 264.44L484.369 264.418C484.457 264.148 484.546 263.526 484.219 263.381Z" fill="#231F20"/>
<path fill-rule="evenodd" clip-rule="evenodd" d="M476.801 264.067L476.805 264.057C477.077 263.389 476.106 263.102 476.023 263.702L476.018 263.742C475.938 264.408 476.107 265.304 476.863 265.37C477.712 265.445 478.066 264.423 477.99 263.673C477.976 263.539 477.825 263.52 477.779 263.642L477.769 263.669C477.632 264.046 477.501 264.771 477.018 264.77C476.696 264.769 476.711 264.299 476.801 264.067Z" fill="#231F20"/>
<path fill-rule="evenodd" clip-rule="evenodd" d="M507.453 337.54L487.007 404.513L477.103 461.47H469.337L479.803 337.54H507.453Z" fill="#997659"/>
<path fill-rule="evenodd" clip-rule="evenodd" d="M514.768 337.54C513.379 374.312 515.013 393.28 515.324 396.621C515.635 399.962 519.891 421.624 529.967 462.592L521.692 459.744C505.768 422.171 500.342 402.643 498.515 397.709C496.689 392.776 491.838 372.719 483.963 337.54H514.768Z" fill="#B28B67"/>
<path fill-rule="evenodd" clip-rule="evenodd" d="M510.17 337.54L501.477 371.662H474.924L478.883 337.54H510.17Z" fill="#69A1AC"/>
<path fill-rule="evenodd" clip-rule="evenodd" d="M515.06 337.54C519.351 350.426 516.69 371.662 516.69 371.662H489.594L482.143 337.54H515.06Z" fill="#89C5CC"/>
<path fill-rule="evenodd" clip-rule="evenodd" d="M544.626 354.703C542.598 351.727 528.924 311.68 528.924 311.68L517.131 313.383C517.131 313.383 536.738 355.084 537.858 357.024C539.314 359.543 538.025 363.682 537.151 366.489C537.016 366.923 536.89 367.325 536.787 367.684C538.621 368.213 539.319 367.165 540.055 366.059C540.886 364.811 541.766 363.49 544.385 364.287C545.397 364.594 546.369 364.99 547.319 365.376C550.6 366.71 553.614 367.935 557.077 365.067C557.626 364.613 558.089 363.126 556.345 362.261C551.999 360.104 545.618 356.158 544.626 354.703ZM442.997 352.633L456.172 335.623L462.473 343.668L447.913 355.24C444.812 362.058 442.855 365.09 442.04 364.338C441.354 363.703 441.512 362.88 441.657 362.122C441.771 361.531 441.877 360.979 441.57 360.587C440.869 359.692 437.76 360.698 434.852 361.779C431.943 362.859 432.43 361.29 432.96 360.432C435.476 357.748 438.821 355.148 442.997 352.633Z" fill="#B28B67"/>
<path fill-rule="evenodd" clip-rule="evenodd" d="M488.274 283.321L483.502 283.178C479.802 310.11 444.57 333.065 443.616 343.072C443.266 346.742 446.078 348.177 444.908 349.445L451.586 353.019C452.444 351.681 454.94 353.558 459.295 351.387C463.651 349.217 492.584 313.989 488.274 283.321Z" fill="#FFA5A1"/>
<path fill-rule="evenodd" clip-rule="evenodd" d="M494.017 277.128C496.178 276.669 498.303 278.049 498.762 280.21L499.046 281.542C508.761 287.046 533.324 304.12 544.253 340.795C545.401 344.647 544.622 346.907 543.999 348.712C543.573 349.947 543.22 350.97 543.608 352.144L535.988 355.442C535.863 354.552 534.769 354.016 533.358 353.323C531.305 352.317 528.582 350.981 527.19 347.751C525.871 344.69 524.036 340.892 521.889 336.682C522.569 342.562 522.213 348.107 520.415 352.911C515.93 364.896 479.253 357.598 474.004 346.752C471.203 340.965 473.254 335.487 475.966 328.243C479.416 319.025 483.937 306.948 480.899 287.734C480.878 287.657 480.859 287.578 480.842 287.499L480.133 284.167C479.674 282.006 481.053 279.882 483.214 279.423L494.017 277.128Z" fill="#FFA5A1"/>
</g>
<defs>
<clipPath id="clip0">
<rect width="768" height="400" fill="white"/>
</clipPath>
</defs>
</svg>
